<?xml version="1.0" encoding="utf-8"?>
<!-- Generator: Adobe Illustrator 27.5.0, SVG Export Plug-In . SVG Version: 6.00 Build 0)  -->
<svg version="1.1" id="Layer_1" xmlns="http://www.w3.org/2000/svg" xmlns:xlink="http://www.w3.org/1999/xlink" x="0px" y="0px"
	 viewBox="0 0 4000 4000" style="enable-background:new 0 0 4000 4000;" xml:space="preserve">
<g>
	<rect style="fill:#FFD94F;" width="4000" height="4000"/>
	<g>
		<g>
			
				<ellipse transform="matrix(0.9149 -0.4036 0.4036 0.9149 -154.4456 659.4498)" style="fill:#497FEA;" cx="1487.004" cy="696.073" rx="94.411" ry="66.295"/>
		</g>
		<g>
			<path style="fill:#000072;" d="M1456.28,786.077c-7.717,0-15.278-0.718-22.559-2.168c-27.402-5.462-47.798-20.491-57.427-42.322
				c-9.631-21.826-6.985-47.021,7.453-70.942c13.193-21.855,35.051-40.33,61.545-52.019
				c57.859-25.532,118.184-11.499,137.339,31.931c9.631,21.829,6.985,47.024-7.454,70.942
				c-13.193,21.856-35.051,40.33-61.545,52.019C1494.842,781.81,1475.101,786.077,1456.28,786.077z M1502.903,642.791
				c-13.462,0-28.345,3.047-42.793,9.419c-19.363,8.545-35.742,22.178-44.934,37.407c-4.68,7.751-11.592,22.888-5.298,37.153
				c0,0,0,0,0,0.002c6.294,14.265,22.134,19.365,31.016,21.135c17.444,3.474,38.555,0.569,57.92-7.974
				c19.365-8.545,35.745-22.178,44.937-37.405c4.68-7.754,11.592-22.891,5.298-37.156
				C1542.576,650.703,1524.59,642.791,1502.903,642.791z"/>
		</g>
		<g>
			<path style="fill:#E52E2E;" d="M1874.946,2702.194l-52.907,186.07l-16.932,59.561l-10.049,35.333l-6.011,21.108l-25.559,90.03
				c3.671,29.551,7.25,56.441,10.279,80.852c6.378,52.127,9.957,93.195,5.736,125.316c-10.646,79.66-69.793,104.163-255.818,104.163
				c-260.177,0-291.793-43.546-266.968-117.195c3.396-10.187,7.938-20.97,13.078-32.304
				c30.056-66.123,185.382-130.869,272.796-162.806c35.7-13.032,60.112-20.603,60.112-20.603l32.488-106.182l10.049-32.763
				l5.69-18.492l26.201-85.717l52.494-171.524L1874.946,2702.194z"/>
		</g>
		<g style="opacity:0.2;">
			<path style="fill:#000072;" d="M1729.623,2657.041l145.323,45.153l-52.907,186.07c-59.974-16.886-109.807-40.426-144.91-59.698
				L1729.623,2657.041z"/>
		</g>
		<g>
			<g>
				<path style="fill:#FFFFFF;" d="M1789.049,3004.286l-25.583,90.004c3.686,29.533,7.284,56.433,10.312,80.876
					c-48.973,1.799-146.832-6.012-231.175-82.851c35.677-13.033,60.076-20.581,60.076-20.581l32.517-106.196l10.049-32.781
					l149.816,50.378L1789.049,3004.286z"/>
			</g>
			<g>
				<path style="fill:#000072;" d="M1761.709,3193.74c-55.657,0-149.429-13.118-231.467-87.856
					c-4.746-4.324-6.887-10.813-5.65-17.114c1.24-6.299,5.681-11.492,11.712-13.697c23.042-8.415,41.309-14.534,51.636-17.898
					l39.756-129.797c1.453-4.736,4.756-8.687,9.163-10.95c4.407-2.261,9.543-2.644,14.236-1.069l149.817,50.378
					c9.29,3.122,14.485,12.991,11.804,22.417l-30.574,107.561c1.672,13.34,3.325,26.135,4.907,38.401
					c1.753,13.567,3.42,26.492,4.944,38.794c0.632,5.105-0.906,10.24-4.241,14.156c-3.335,3.916-8.161,6.255-13.301,6.443
					C1770.472,3193.655,1766.214,3193.74,1761.709,3193.74z M1579.378,3098.76c62.478,45.918,128.997,56.946,173.594,58.154
					c-0.754-5.901-1.533-11.934-2.329-18.098c-1.736-13.445-3.552-27.522-5.391-42.253c-0.305-2.444-0.115-4.922,0.557-7.292
					l25.583-90.005c0,0,0,0,0.002,0l1.226-4.311l-115.354-38.789l-37.036,120.943c-1.78,5.811-6.321,10.364-12.124,12.16
					C1607.945,3089.317,1597.025,3092.708,1579.378,3098.76z"/>
			</g>
		</g>
		<g>
			<path style="fill:#000072;" d="M1523.689,3422.984c-166.375,0-249.973-17.559-279.531-58.713
				c-19.963-27.8-12.327-60.523-4.844-82.718c3.267-9.714,7.639-20.527,13.753-34.014
				c41.435-91.211,278.362-172.195,334.883-190.393l124.131-405.476c1.428-4.668,4.658-8.574,8.975-10.857
				c4.317-2.28,9.365-2.749,14.024-1.299l145.295,45.156c9.514,2.956,14.932,12.961,12.209,22.546l-110.442,388.499
				c1.555,12.373,3.091,24.275,4.568,35.727c9.653,74.8,16.626,128.843,10.969,171.426
				C1784.146,3404.41,1694.793,3422.984,1523.689,3422.984z M1741.788,2680.039l-121.558,397.068
				c-1.777,5.803-6.308,10.354-12.104,12.153c-78.647,24.446-289.744,103.257-321.631,173.452
				c-5.586,12.314-9.524,22.026-12.39,30.554c-10.12,30.022-5.386,42.271-0.129,49.59c20.984,29.216,102.666,43.418,249.714,43.418
				c193.232,0,229.468-27.224,237.6-88.247c5.024-37.81-2.041-92.566-10.986-161.887c-1.631-12.634-3.333-25.818-5.051-39.575
				c-0.305-2.444-0.115-4.924,0.557-7.295l106.565-374.861L1741.788,2680.039z"/>
		</g>
		<g>
			<path style="fill:#497FEA;" d="M1779.483,3300.452c-10.62,79.691-69.774,104.178-255.793,104.178
				c-18.65,0-36.16-0.219-52.528-0.658c-211.911-5.749-237.495-48.139-214.456-116.553c3.423-10.18,7.943-20.976,13.077-32.297
				c13.647-30.104,53.23-59.9,100.579-86.45c99.175-55.6,232.316-96.937,232.316-96.937s31.025,97.332,160.787,22.556
				C1775.007,3186.663,1785.758,3253.234,1779.483,3300.452z"/>
		</g>
		<g style="opacity:0.6;">
			<path style="fill:#FFFFFF;" d="M1249.783,3298.459c114.212-101.639,362.55-196.991,367.047-198.689
				c-13.123-13.536-17.758-28.036-17.758-28.036s-133.163,41.344-232.324,96.958c-35.837,20.098-67.224,42.078-86.313,64.609
				c-6.103,7.25-10.967,14.546-14.271,21.842c-5.139,11.334-9.636,22.117-13.078,32.304
				C1251.802,3291.209,1250.7,3294.88,1249.783,3298.459z"/>
		</g>
		<g>
			<path style="fill:#FFFFFF;" d="M1471.162,3403.971c-211.911-5.749-237.495-48.139-214.456-116.553
				c3.423-10.18,7.943-20.976,13.077-32.297c13.647-30.104,53.23-59.9,100.579-86.45c0.044,0,0.088,0,0.088,0
				S1514.913,3199.565,1471.162,3403.971z"/>
		</g>
		<g style="opacity:0.2;">
			<path style="fill:#000072;" d="M1470.243,3403.983c16.381,0.414,33.864,0.643,52.54,0.643
				c185.979,0,245.172-24.503,255.772-104.163c2.753-20.695,2.248-45.106-0.23-73.786c-50.613,33.498-170.193,94.251-310.01,37.994
				c0,0-114.211,31.432-185.198-31.386c-6.103,7.25-10.967,14.546-14.271,21.842c-5.139,11.334-9.636,22.117-13.078,32.304
				C1232.734,3355.848,1258.338,3398.201,1470.243,3403.983z"/>
		</g>
		<g>
			<path style="fill:#000072;" d="M1471.167,3421.47c-0.159,0-0.32,0-0.479-0.005c-132.583-3.598-200.276-21.069-226.355-58.427
				c-19.082-27.336-11.543-59.436-4.212-81.206c3.259-9.692,7.62-20.481,13.723-33.938c13.889-30.635,49.202-61.543,107.956-94.485
				c3.687-2.07,8.169-2.734,12.307-1.851c1.697,0.364,41.948,9.314,75.974,46.255c30.762,33.398,62.358,96.912,38.191,209.819
				C1486.543,3415.723,1479.395,3421.47,1471.167,3421.47z M1372.679,3187.483c-59.104,34.035-79.946,59.397-86.958,74.863
				c-5.601,12.356-9.551,22.092-12.427,30.647c-7.915,23.508-7.996,38.928-0.261,50.01c17.441,24.985,77.637,39.082,183.813,43.003
				C1483.48,3235.105,1396.946,3195.513,1372.679,3187.483z"/>
		</g>
		<g>
			<path style="fill:#000072;" d="M1523.689,3422.984c-18.728,0-36.565-0.225-53.02-0.664
				c-132.888-3.603-200.786-21.186-227.036-58.794c-19.302-27.651-11.712-60.022-4.321-81.966
				c3.269-9.722,7.642-20.534,13.755-34.021c13.967-30.805,49.397-61.841,108.318-94.878
				c99.719-55.903,230.339-96.746,235.852-98.457c9.634-2.981,19.868,2.351,22.93,11.955c0.293,0.862,8.574,24.636,33.589,34.087
				c24.739,9.338,59.509,1.79,100.545-21.86c5.332-3.074,11.841-3.267,17.344-0.527c5.505,2.739,9.273,8.054,10.034,14.155
				c1.711,13.704,3.408,26.841,5.032,39.429c9.653,74.8,16.626,128.843,10.969,171.426c-0.003,0.003-0.003,0.005-0.003,0.007
				C1784.146,3404.41,1694.793,3422.984,1523.689,3422.984z M1593.196,3094.119c-37.239,12.403-136.743,47.332-213.86,90.564
				c-63.684,35.708-85.637,62.134-92.837,78.015c-5.591,12.329-9.529,22.041-12.395,30.569c-7.822,23.225-7.935,38.41-0.371,49.248
				c17.82,25.525,84.412,40.029,197.927,43.106c16.123,0.435,33.628,0.654,52.029,0.654c193.232,0,229.468-27.224,237.6-88.247
				c5.022-37.817-2.043-92.571-10.986-161.887c-0.569-4.399-1.145-8.865-1.729-13.398c-41.785,19.412-78.208,23.313-108.528,11.563
				C1615.621,3124.839,1601.102,3107.268,1593.196,3094.119z M1779.483,3300.452h0.049H1779.483z"/>
		</g>
		<g>
			<path style="fill:#FFFFFF;" d="M1779.483,3300.452c-10.62,79.691-69.774,104.178-255.793,104.178
				c-260.182,0-291.821-43.532-266.984-117.212C1256.706,3287.418,1492.182,3366.979,1779.483,3300.452z"/>
		</g>
		<g>
			<path style="fill:#000072;" d="M1523.689,3422.129c-166.069,0-249.458-17.451-278.835-58.359
				c-19.736-27.481-12.151-59.927-4.729-81.944c1.482-4.399,4.653-8.03,8.813-10.09c4.163-2.063,8.97-2.39,13.369-0.898
				c2.307,0.776,234.509,77.104,513.227,12.566c5.589-1.296,11.467,0.234,15.72,4.099c4.25,3.865,6.333,9.568,5.574,15.261
				C1783.382,3403.667,1694.295,3422.129,1523.689,3422.129z M1268.782,3309.371c-2.981,14.856-1.479,25.656,4.5,33.984
				c21.155,29.455,103.064,43.774,250.408,43.774c164.954,0,215.889-19.868,232.466-63.699
				C1521.116,3371.211,1327.159,3325.899,1268.782,3309.371z"/>
		</g>
		<g>
			<path style="fill:#000072;" d="M1452.628,3116.614c3.362,0.903,5.594,1.697,8.168,2.751c2.464,1.047,4.867,2.161,7.158,3.455
				c4.669,2.449,8.972,5.476,13.1,8.708c8.231,6.526,15.125,14.719,20.847,23.503c3.054,4.243,5.215,9.133,7.578,13.713
				c1.956,4.866,3.905,9.639,5.051,14.685c2.76,9.888,3.145,20.21,2.216,29.951c-0.117,1.216-1.196,2.107-2.411,1.99
				c-0.751-0.071-1.378-0.51-1.721-1.121l-0.098-0.178c-4.649-8.433-8.691-16.333-14.214-23.162
				c-2.303-3.618-5.573-6.606-8.101-9.873c-3.023-2.993-5.881-5.957-9.043-8.652c-6.184-5.476-12.902-10.134-19.582-14.717
				l-10.146-6.67l-5.061-3.257c-1.558-1.072-3.538-2.249-4.475-3.113l-3.113-2.871c-6.002-5.535-6.381-14.885-0.847-20.886
				C1441.783,3116.697,1447.497,3115.251,1452.628,3116.614z"/>
		</g>
		<g>
			<path style="fill:#000072;" d="M1523.083,3089.485c3.239,1.453,5.464,2.673,7.967,4.175c2.391,1.489,4.739,3.018,6.923,4.729
				c4.501,3.279,8.577,7.061,12.438,11.042c7.715,7.996,13.937,17.441,18.967,27.373c5.139,9.871,8.511,20.703,10.19,31.538
				c1.894,10.818,1.046,21.914-1.077,32.156c-0.247,1.189-1.409,1.953-2.598,1.707c-0.763-0.159-1.351-0.693-1.609-1.372
				l-0.077-0.208c-3.584-9.653-6.646-18.655-11.62-26.721c-4.574-8.132-9.81-15.579-15.852-22.31
				c-5.934-6.79-12.532-12.852-19.114-18.853l-10.036-8.826l-5.027-4.343c-1.562-1.411-3.487-2.988-4.523-4.133l-2.114-2.336
				c-5.527-6.106-5.058-15.537,1.049-21.067C1511.494,3087.944,1517.85,3087.148,1523.083,3089.485z"/>
		</g>
		<g>
			<path style="fill:#497FEA;" d="M1805.111,2947.809l-16.061,56.477c-101.739,21.606-153.853-38.749-153.853-38.749l15.71-51.255
				C1761.14,2972.602,1805.111,2947.809,1805.111,2947.809z"/>
		</g>
		<g>
			<path style="fill:#000072;" d="M1745.826,3024.004c-78.899,0-119.98-46.343-121.983-48.665c-3.372-3.904-4.5-9.265-2.988-14.199
				l15.711-51.255c1.311-4.275,4.46-7.744,8.591-9.458c4.123-1.714,8.809-1.499,12.764,0.596
				c99.184,52.476,139.797,33.716,140.19,33.521c5.3-2.988,11.69-2.38,16.467,1.382c4.775,3.762,6.623,10.137,4.961,15.986
				l-16.062,56.477c-1.521,5.347-5.874,9.414-11.313,10.569C1775.496,3022.498,1760.045,3024.004,1745.826,3024.004z
				 M1652.205,2961.229c14.395,12.664,55.972,41.694,124.946,30.059l6.677-23.479c-24.133,1.663-64.211-3.101-123.809-32.075
				L1652.205,2961.229z"/>
		</g>
		<g>
			<path style="fill:#E52E2E;" d="M2290.449,3404.625c-186.024,0-245.172-24.503-255.772-104.163
				c-4.634-34.552-0.092-79.384,7.204-137.155c2.661-21.2,5.69-44.189,8.81-69.014l-10.829-93.93l-2.937-24.871l-4.084-35.699
				l-3.029-31.938l-20.786-219.751l145.323-45.152l27.853,224.569l4.818,38.728l4.405,36.388l2.248,18.997l17.804,110.083
				c0,0,52.632,16.381,116.368,42.353c85.991,35.011,192.219,87.552,216.493,141.055c5.139,11.334,9.682,22.117,13.078,32.304
				C2582.288,3361.079,2550.626,3404.625,2290.449,3404.625z"/>
		</g>
		<g style="opacity:0.2;">
			<path style="fill:#000072;" d="M2182.202,2867.523c-52.173,22.897-103.428,35.378-152.389,40.334l-20.786-219.751l145.323-45.152
				L2182.202,2867.523z"/>
		</g>
		<g>
			<g>
				<path style="fill:#FFFFFF;" d="M2327.844,3114.081c-53.713,36.774-149.728,79.692-285.985,49.237
					c2.677-21.195,5.705-44.19,8.82-69.028l-10.839-93.909l-2.896-24.881l154.467-32.869l2.282,19.001l17.773,110.103
					C2211.466,3071.734,2264.126,3088.103,2327.844,3114.081z"/>
			</g>
			<g>
				<path style="fill:#000072;" d="M2132.61,3192.061c-29.275,0-60.857-3.254-94.756-10.83c-9.241-2.065-15.393-10.82-14.207-20.212
					c1.182-9.341,2.429-19.028,3.721-29.067c1.555-12.071,3.176-24.654,4.824-37.754l-13.481-116.577
					c-1.094-9.407,5.149-18.103,14.411-20.073l154.468-32.869c5.034-1.086,10.303,0.022,14.497,3.023
					c4.194,2.998,6.934,7.622,7.546,12.739l2.239,18.633l15.92,98.633c18.757,6.153,59.622,20.071,106.98,39.378
					c6.255,2.551,10.603,8.327,11.321,15.044c0.72,6.716-2.307,13.284-7.881,17.097
					C2292.876,3160.267,2224.085,3192.061,2132.61,3192.061z M2062.222,3148.736c97.258,17.852,172.224-3.44,224.434-31.15
					c-45.979-17.5-80.22-28.193-80.64-28.325c-6.653-2.068-11.56-7.725-12.671-14.602l-17.739-109.9l-118.499,25.215l11.804,102.212
					c0.168,1.458,0.161,2.932-0.02,4.39c-1.748,13.93-3.469,27.285-5.115,40.066
					C2063.25,3140.73,2062.732,3144.764,2062.222,3148.736z"/>
			</g>
		</g>
		<g>
			<path style="fill:#000072;" d="M2290.469,3422.984c-171.104,0-260.456-18.574-273.987-120.108
				c-5.659-42.59,1.313-96.633,10.967-171.433c1.538-11.917,3.137-24.324,4.758-37.241l-17.617-152.334l-23.816-252.051
				c-0.815-8.643,4.536-16.677,12.827-19.253l145.295-45.156c5.183-1.616,10.825-0.847,15.398,2.104
				c4.568,2.947,7.593,7.766,8.264,13.162l32.686,263.298l6.621,55.083l15.933,98.604c59.229,19.16,292.234,99.5,333.289,189.868
				c6.125,13.513,10.498,24.324,13.765,34.041c7.478,22.18,15.115,54.902-4.851,82.703
				C2540.442,3405.425,2456.844,3422.984,2290.469,3422.984z M2028.724,2701.197l22.373,236.836l17.83,154.148
				c0.168,1.458,0.164,2.93-0.02,4.385c-1.719,13.755-3.42,26.941-5.051,39.575c-8.945,69.322-16.011,124.075-10.984,161.895
				c8.13,61.016,44.365,88.24,237.598,88.24c147.048,0,228.73-14.202,249.714-43.418c5.256-7.319,9.993-19.568-0.122-49.577
				c-2.866-8.525-6.807-18.237-12.402-30.579c-31.882-70.183-242.979-148.994-321.626-173.44c-6.653-2.065-11.563-7.722-12.673-14.6
				l-17.793-110.115c-0.039-0.244-0.073-0.491-0.103-0.737l-6.658-55.386l-29.973-241.448L2028.724,2701.197z"/>
		</g>
		<g>
			<path style="fill:#497FEA;" d="M2342.989,3403.983c-16.381,0.414-33.864,0.643-52.54,0.643
				c-185.979,0-245.172-24.503-255.772-104.163c-2.753-20.695-2.248-45.106,0.23-73.786c3.074-36.755,9.315-80.485,15.785-132.383
				c79.659,45.886,122.104,26.935,143.029,5.46c13.123-13.536,17.758-28.036,17.758-28.036s133.163,41.344,232.324,96.958
				c35.837,20.098,67.224,42.078,86.313,64.609c6.103,7.25,10.967,14.546,14.271,21.842c5.139,11.334,9.636,22.117,13.078,32.304
				c1.285,3.762,2.386,7.434,3.304,11.013C2577.148,3360.391,2543.284,3398.523,2342.989,3403.983z"/>
		</g>
		<g style="opacity:0.6;">
			<path style="fill:#FFFFFF;" d="M2560.767,3298.444c-114.212-101.639-362.55-196.991-367.047-198.689
				c13.123-13.536,17.758-28.036,17.758-28.036s133.163,41.344,232.324,96.958c35.837,20.098,67.224,42.078,86.313,64.609
				c6.103,7.25,10.967,14.546,14.271,21.842c5.139,11.334,9.636,22.117,13.078,32.304
				C2558.748,3291.193,2559.849,3294.865,2560.767,3298.444z"/>
		</g>
		<g>
			<path style="fill:#FFFFFF;" d="M2342.997,3403.971c211.911-5.749,237.494-48.139,214.456-116.553
				c-3.423-10.18-7.943-20.976-13.077-32.297c-13.647-30.104-53.23-59.9-100.58-86.45c-0.044,0-0.088,0-0.088,0
				S2299.246,3199.565,2342.997,3403.971z"/>
		</g>
		<g>
			<path style="fill:#000072;" d="M2342.991,3421.47c-8.23,0-15.376-5.747-17.107-13.838
				c-24.167-112.907,7.429-176.421,38.191-209.819c34.026-36.941,74.277-45.891,75.974-46.255c4.138-0.877,8.621-0.217,12.307,1.851
				c58.755,32.942,94.067,63.85,107.957,94.485c6.108,13.472,10.471,24.258,13.728,33.948c7.329,21.76,14.866,53.862-4.216,81.196
				c-26.079,37.358-93.774,54.829-226.355,58.427C2343.311,3421.47,2343.15,3421.47,2342.991,3421.47z M2441.473,3187.479
				c-24.131,7.973-110.815,47.51-84.16,198.528c106.177-3.921,166.372-18.017,183.813-43.003
				c7.734-11.082,7.656-26.502-0.256-50.002c-2.874-8.547-6.824-18.286-12.432-30.654
				C2521.426,3246.88,2500.574,3221.514,2441.473,3187.479z"/>
		</g>
		<g style="opacity:0.2;">
			<path style="fill:#000072;" d="M2342.989,3403.983c-16.381,0.414-33.864,0.643-52.54,0.643
				c-185.979,0-245.172-24.503-255.772-104.163c-2.753-20.695-2.248-45.106,0.23-73.786c50.613,33.498,170.193,94.251,310.01,37.994
				c0,0,114.211,31.432,185.198-31.386c6.103,7.25,10.967,14.546,14.271,21.842c5.139,11.334,9.636,22.117,13.078,32.304
				C2580.498,3355.848,2554.894,3398.201,2342.989,3403.983z"/>
		</g>
		<g>
			<path style="fill:#000072;" d="M2290.469,3422.984c-171.104,0-260.456-18.574-273.987-120.108c0-0.002,0-0.005-0.003-0.007
				c-5.657-42.583,1.316-96.626,10.969-171.426c1.623-12.588,3.32-25.725,5.032-39.429c0.762-6.101,4.529-11.416,10.034-14.155
				c5.503-2.739,12.012-2.546,17.344,0.527c41.033,23.647,75.801,31.198,100.544,21.86c25.015-9.451,33.296-33.225,33.635-34.231
				c3.186-9.439,13.369-14.766,22.883-11.812c5.513,1.711,136.135,42.554,235.852,98.457c58.921,33.037,94.351,64.072,108.318,94.88
				c6.121,13.498,10.493,24.309,13.76,34.026c7.388,21.936,14.978,54.307-4.326,81.958c-26.252,37.607-94.148,55.19-227.031,58.794
				C2327.034,3422.759,2309.197,3422.984,2290.469,3422.984z M2052.869,3298.028c8.132,61.023,44.368,88.247,237.6,88.247
				c18.401,0,35.906-0.22,52.034-0.654c113.511-3.076,180.103-17.581,197.922-43.108c7.563-10.835,7.451-26.021-0.366-49.238
				c-2.864-8.521-6.804-18.232-12.4-30.574c-7.2-15.884-29.153-42.31-92.839-78.018c-77.112-43.232-176.619-78.162-213.857-90.564
				c-7.905,13.149-22.424,30.72-46.851,40.186c-30.32,11.753-66.743,7.844-108.528-11.563c-0.583,4.534-1.16,8.999-1.729,13.398
				C2054.913,3205.457,2047.847,3260.21,2052.869,3298.028L2052.869,3298.028z"/>
		</g>
		<g>
			<path style="fill:#FFFFFF;" d="M2290.449,3404.625c-157.208,0-223.789-17.482-247.008-71.032
				c-4.313-9.774-7.112-20.787-8.765-33.13c287.296,66.535,522.786-13.032,522.786-13.032c3.808,11.243,6.286,21.796,6.791,31.616
				C2567.283,3373.377,2510.888,3404.625,2290.449,3404.625z"/>
		</g>
		<g style="opacity:0.2;">
			<path style="fill:#000072;" d="M2290.449,3404.625c-157.208,0-223.789-17.482-247.008-71.032
				c42.353,17.345,127.519,40.105,275.319,34.277c126.647-5.001,202.589-28.496,245.493-48.823
				C2567.283,3373.377,2510.888,3404.625,2290.449,3404.625z"/>
		</g>
		<g style="opacity:0.2;">
			<path style="fill:#000072;" d="M1522.768,3404.625c157.208,0,223.789-17.482,247.008-71.032
				c-42.353,17.345-127.519,40.105-275.32,34.277c-126.647-5.001-202.589-28.496-245.493-48.823
				C1245.934,3373.377,1302.329,3404.625,1522.768,3404.625z"/>
		</g>
		<g>
			<path style="fill:#000072;" d="M2290.469,3422.129c-170.605,0-259.692-18.462-273.14-119.365
				c-0.759-5.693,1.323-11.396,5.574-15.261c4.253-3.865,10.129-5.388,15.72-4.099c278.721,64.536,510.925-11.792,513.237-12.569
				c9.172-3.079,19.092,1.841,22.178,10.991c7.419,22.017,15.002,54.466-4.734,81.946
				C2539.927,3404.678,2456.536,3422.129,2290.469,3422.129z M2058.003,3323.43c16.582,43.823,67.524,63.699,232.466,63.699
				c147.344,0,229.253-14.319,250.408-43.774c5.981-8.328,7.48-19.129,4.5-33.984
				C2486.998,3325.892,2293.038,3371.206,2058.003,3323.43z"/>
		</g>
		<g>
			<path style="fill:#000072;" d="M2372.266,3144.629c-0.938,0.864-2.918,2.041-4.476,3.113l-5.061,3.257l-10.146,6.67
				c-6.68,4.583-13.398,9.241-19.582,14.717c-3.162,2.695-6.02,5.659-9.043,8.652c-2.527,3.267-5.798,6.255-8.1,9.873
				c-5.523,6.829-9.565,14.729-14.214,23.162l-0.091,0.166c-0.59,1.069-1.935,1.46-3.005,0.869c-0.66-0.364-1.062-1.03-1.134-1.726
				c-0.929-9.741-0.544-20.063,2.215-29.951c1.146-5.046,3.096-9.819,5.052-14.685c2.362-4.58,4.524-9.47,7.577-13.713
				c5.721-8.784,12.615-16.978,20.847-23.503c4.128-3.232,8.431-6.26,13.1-8.708c2.291-1.294,4.694-2.407,7.157-3.455
				c2.574-1.055,4.807-1.848,8.168-2.751c7.885-2.114,15.991,2.566,18.105,10.449c1.47,5.486-0.345,11.077-4.24,14.683
				L2372.266,3144.629z"/>
		</g>
		<g>
			<path style="fill:#000072;" d="M2306.124,3115.439c-1.036,1.145-2.961,2.722-4.523,4.133l-5.027,4.343l-10.035,8.826
				c-6.583,6.001-13.181,12.063-19.115,18.853c-6.042,6.731-11.278,14.177-15.851,22.31c-4.974,8.066-8.036,17.068-11.62,26.721
				l-0.072,0.193c-0.422,1.138-1.687,1.719-2.825,1.296c-0.731-0.273-1.234-0.906-1.387-1.616
				c-2.123-10.242-2.971-21.338-1.078-32.156c1.679-10.835,5.052-21.667,10.19-31.538c5.03-9.932,11.251-19.377,18.967-27.373
				c3.862-3.982,7.938-7.764,12.438-11.042c2.185-1.711,4.533-3.24,6.923-4.729c2.502-1.501,4.728-2.722,7.967-4.175
				c7.517-3.369,16.342-0.01,19.713,7.507c2.496,5.566,1.301,11.851-2.54,16.104L2306.124,3115.439z"/>
		</g>
		<g>
			<path style="fill:#497FEA;" d="M2032.824,2939.76l7.01,60.609c101.739,21.606,153.853-38.748,153.853-38.748l-6.659-55.387
				C2076.794,2964.553,2032.824,2939.76,2032.824,2939.76z"/>
		</g>
		<g>
			<path style="fill:#000072;" d="M2083.057,3020.088c-14.226,0-29.663-1.504-46.338-5.046c-6.301-1.338-11.045-6.55-11.785-12.949
				l-7.012-60.61c-0.649-5.603,1.902-11.099,6.602-14.219c4.595-3.054,10.481-3.333,15.334-0.752
				c1.458,0.666,42.29,18.24,140.156-33.538c4.365-2.31,9.592-2.319,13.972-0.03c4.377,2.29,7.346,6.592,7.935,11.499l6.658,55.386
				c0.503,4.189-0.781,8.398-3.54,11.592C2203.038,2973.743,2161.944,3020.088,2083.057,3020.088z M2053.465,2987.654
				c69.98,11.189,111.387-19.549,124.46-31.47l-3.24-26.946c-61.104,29.153-101.284,32.585-124.487,30.186L2053.465,2987.654z
				 M2032.823,2939.759h0.049H2032.823z"/>
		</g>
		<g>
			<path style="fill:#E52E2E;" d="M2889.499,1720.817c-2.019,2.845-4.176,5.507-6.424,8.076
				c-23.631,27.165-56.073,39.509-56.073,39.509c-33.864,50.796-84.615,47.951-84.615,47.951s-64.884,141.055-160.787,149.544
				c-95.949,8.443-257.194-154.867-234.067-217.227c5.323-14.363,11.885-25.375,19.364-33.543
				c63.507-69.701,192.127,66.857,192.127,66.857l56.395-53.045c-17.712-27.44-16.106-58.505-11.472-80.118
				c4.313-20.006,0.367-40.839-10.187-58.368l-62.865-104.116c-3.946-6.517-5.277-13.721-4.497-20.558
				c1.514-13.536,11.334-25.651,26.109-28.174c69.289-11.839,127.794,102.281,127.794,102.281
				c81.816-124.124,157.987-28.174,157.987-28.174c73.373,11.289,56.441,104.346,56.441,104.346
				C2916.388,1661.898,2907.165,1696.405,2889.499,1720.817z"/>
		</g>
		<g style="opacity:0.2;">
			<path style="fill:#000072;" d="M2889.499,1720.817c-2.019,2.845-4.176,5.507-6.424,8.076
				c-23.631,27.165-56.073,39.509-56.073,39.509c-33.864,50.796-84.615,47.951-84.615,47.951s-64.884,141.055-160.787,149.544
				c-95.949,8.443-257.194-154.867-234.067-217.227c5.323-14.363,11.885-25.375,19.364-33.543
				c48.135,63.645,134.356,169.139,188.823,171.892c77.686,3.946,133.989-115.037,133.989-115.037s81.541,3.808,93.242-27.578
				C2782.95,1744.403,2839.62,1735.959,2889.499,1720.817z"/>
		</g>
		<g style="opacity:0.6;">
			<path style="fill:#FFFFFF;" d="M2883.074,1728.893c-2.156-40.518-14.454-70.252-14.454-70.252
				c11.603-112.563-31.937-100.767-31.937-100.767c-56.314-95.81-119.654-24.685-145.318,12.194
				c-5.851,8.407-18.245,8.581-24.24,0.276c-55.003-76.208-111.131-101.834-140.727-104.564
				c1.514-13.536,11.334-25.651,26.109-28.174c69.289-11.839,127.794,102.281,127.794,102.281
				c81.816-124.124,157.987-28.174,157.987-28.174c73.373,11.289,56.441,104.346,56.441,104.346
				C2918.912,1667.175,2904.641,1704.206,2883.074,1728.893z"/>
		</g>
		<g>
			<path style="fill:#000072;" d="M2574.261,1984.554c-69.219,0-157.434-66.848-207.754-132.81
				c-23.567-30.894-48.972-74.963-36.162-109.468l0,0c13.457-36.243,35.286-57.664,64.88-63.665
				c61.25-12.432,134.192,49.187,164.175,77.822l33.152-31.191c-13.159-28.892-11.133-58.921-6.548-80.283
				c3.247-15.132,0.42-31.113-7.961-45l-62.849-104.153c-8.738-14.48-9.741-32.332-2.683-47.754
				c6.899-15.083,20.693-25.745,36.895-28.521c59.421-10.205,109.026,51.174,132.583,87.236
				c25.833-31.013,54.004-47.371,83.997-48.696c40.471-1.836,70.532,24.895,81.838,36.748c20.51,4.573,36.741,15.088,48.311,31.326
				c21.609,30.322,19.297,71.772,17.5,87.188c14.534,33.313,16.021,64.819,4.402,93.718c-18.159,45.171-63.147,68.979-78.962,76.165
				c-28.391,39.204-65.696,48.691-84.993,50.894c-17.664,34.133-80.396,142.075-170.886,150.059
				C2580.259,1984.427,2577.271,1984.554,2574.261,1984.554z M2364.759,1755.054c-3.901,10.51,1.858,36.309,30.935,74.426
				c46.191,60.549,129.766,122.944,184.272,118.12c84.331-7.439,145.134-137.588,145.74-138.901
				c3.149-6.848,10.125-11.125,17.693-10.654c1.514,0.042,41.089,1.064,68.342-39.814c2.117-3.176,5.171-5.613,8.738-6.973
				c0.432-0.166,47.969-18.958,63.569-58.083c8.154-20.442,6.162-43.738-5.918-69.243c-1.643-3.467-2.158-7.363-1.472-11.14
				c1.995-11.304,4.016-45.198-10.488-65.437c-6.936-9.678-16.965-15.408-30.664-17.515c-4.57-0.703-8.708-3.105-11.582-6.729
				c-0.19-0.234-24.534-29.983-56.543-28.354c-24.214,1.179-48.352,19.768-71.738,55.251c-3.589,5.449-9.795,8.594-16.323,8.228
				c-6.516-0.356-12.356-4.143-15.334-9.951c-14.624-28.398-62.656-100.42-108.381-92.571c-5.881,1.008-8.611,5.203-9.712,7.612
				c-0.964,2.104-2.817,7.632,0.732,13.516l62.849,104.15c13.225,21.917,17.639,47.368,12.424,71.67
				c-3.857,17.971-5.437,44.06,8.945,66.284c4.817,7.441,3.623,17.263-2.832,23.34l-56.421,53.083
				c-7.375,6.934-18.984,6.582-25.93-0.776c-24.038-25.459-96.563-89.424-143.162-80
				C2385.962,1717.954,2373.619,1731.189,2364.759,1755.054L2364.759,1755.054z"/>
		</g>
		<g>
			<path style="fill:#000072;" d="M2751.73,1549.526c-7.941,11.235-15.626,22.117-21.658,33.228
				c-6.039,10.989-10.511,22.393-10.505,32.266c0.072,4.917,1.089,9.375,3.404,13.423c0.679,0.984,1.101,2.039,1.902,2.983
				c0.716,0.84,1.511,2.244,2.069,2.493c0.592,0.469,1.027,1.157,1.676,1.333c0.288,0.156,0.553,0.33,0.804,0.532
				c0.296,0.134,0.656,0.161,0.951,0.283c2.372,0.825,6.244,0.903,10.942-0.317c4.658-1.201,9.737-3.477,14.694-6.272
				c19.98-11.79,37.932-30.723,50.914-50.92c6.487-10.183,11.527-21.003,14.502-31.633c1.31-5.31,2.211-10.515,2.336-15.481
				c-0.043-4.907-0.602-9.514-1.922-13.794l-0.271-0.876c-2.847-9.229,2.327-19.019,11.557-21.865
				c8.974-2.769,18.491,2.085,21.627,10.837c3.041,8.53,4.5,17.397,4.533,25.999c-0.14,8.55-1.417,16.738-3.486,24.5
				c-4.41,15.354-11.278,29.141-19.714,41.438c-8.375,12.358-18.019,23.572-28.963,33.481c-5.365,5.051-11.235,9.626-17.221,14.063
				c-6.182,4.253-12.606,8.237-19.596,11.646c-7.055,3.335-14.57,6.245-23.142,7.798c-8.409,1.501-18.768,1.653-28.691-3.337
				c-1.208-0.635-2.441-1.221-3.577-1.96l-3.245-2.507c-2.25-1.636-3.844-3.701-5.532-5.718c-1.871-2.131-2.593-3.809-3.83-5.713
				c-1.163-1.809-1.998-3.928-2.965-5.886c-3.623-8.12-4.837-17.417-4.037-25.945c0.736-8.611,3.54-16.394,7.128-23.262
				c3.576-6.909,8.122-12.891,13.054-18.262c4.98-5.344,10.352-10.098,16.102-14.265c5.793-4.124,11.75-7.856,18.388-10.598
				c0.77-0.317,1.651,0.049,1.969,0.818c0.203,0.493,0.127,1.03-0.156,1.438L2751.73,1549.526z"/>
		</g>
		<g>
			<path style="fill:#000072;" d="M2783.804,1716.199c-10.774,0-20.266-2.549-28.04-7.661
				c-29.817-19.617-28.42-50.359-23.518-63.875c2.83-7.786,11.44-11.797,19.219-8.984c7.729,2.805,11.75,11.306,9.043,19.048
				c-0.967,2.959-4.792,17.869,11.746,28.748c7.712,5.073,23.857,3.042,42.126-5.308c32.31-14.763,62.903-44.7,65.466-64.063
				c1.089-8.213,8.608-13.997,16.841-12.9c8.213,1.089,13.987,8.628,12.9,16.841c-4.543,34.294-46.021,70.63-82.739,87.407
				C2811.194,1712.605,2796.597,1716.197,2783.804,1716.199z"/>
		</g>
		<g>
			<path style="fill:#000072;" d="M2827,1783.411c-3.572,0-34.194-0.662-51.331-22.725c-22.905-29.49-9.182-63.523-8.589-64.956
				c3.179-7.651,11.956-11.279,19.604-8.105c7.617,3.162,11.248,11.875,8.147,19.502c-0.386,0.989-7.463,19.714,4.531,35.156
				c8.284,10.667,27.446,11.128,27.634,11.128c8.196-0.22,15.005,6.699,15.015,14.985c0.007,8.286-6.702,15.007-14.985,15.015
				C2827.017,1783.411,2827.007,1783.411,2827,1783.411z"/>
		</g>
		<g>
			<path style="fill:#000072;" d="M2774.238,1712.209c-3.71,2.512-6.794,4.226-10.221,6.099c-3.346,1.821-6.727,3.511-10.137,5.107
				c-6.823,3.186-13.801,5.947-20.88,8.257c-7.09,2.292-14.366,3.97-21.608,5.085c-7.283,1.042-14.614,1.206-21.67,0.623
				c13.78-3.696,25.719-10.71,36.365-19.021c5.305-4.204,10.312-8.701,15.009-13.457c2.344-2.38,4.621-4.812,6.785-7.3
				c2.109-2.405,4.417-5.156,5.899-7.334c4.776-7.012,14.332-8.823,21.343-4.045c7.011,4.775,8.823,14.331,4.047,21.343
				c-1.116,1.638-2.492,2.991-4.036,4.043L2774.238,1712.209z"/>
		</g>
		<g>
			<path style="fill:#F98D2B;" d="M2124.102,1168.08c41.74-19.733,306.603,118.868,389.774,724.458
				c90.273,657.303-82.986,707.829-218.821,678.192C2075.249,2522.773,1931.33,1259.214,2124.102,1168.08z"/>
		</g>
		<g style="opacity:0.6;">
			<path style="fill:#FFFFFF;" d="M2389.423,2575.029c83.055-57.129,134.248-234.913,74.871-667.349
				c-73.556-535.45-285.674-697.87-363.451-716.545c7.755-9.545,16.244-16.657,25.513-21.016
				c41.757-19.731,306.614,118.846,389.761,724.458C2586.506,2406.9,2496.752,2550.571,2389.423,2575.029z"/>
		</g>
		<g style="opacity:0.2;">
			<path style="fill:#000072;" d="M2396.058,2567.137c-33.313,10.095-68.83,7.617-102.052,0.367
				c-216.63-47.263-359.567-1275.418-179.095-1397.981c106.549,102.006,242.281,322.582,300.098,743.5
				C2463.052,2262.771,2444.79,2459.946,2396.058,2567.137z"/>
		</g>
		<g>
			<path style="fill:#000072;" d="M2349.615,2595.474c-18.22,0-37.686-2.276-58.474-6.812
				c-132.236-28.85-220.591-402.881-256.072-714.409c-34.121-299.58-33.33-668.628,81.189-722.769l0,0
				c21.792-10.305,54.819,4.282,72.563,13.894c37.263,20.181,110.854,73.618,185.059,204.768
				c76.038,134.395,129.258,309.312,158.179,519.893c49.172,358.042,27.009,574.685-67.761,662.307
				C2433.111,2581.18,2395.276,2595.474,2349.615,2595.474z M2131.67,1184.805c-36.833,17.769-63.936,101.672-74.38,230.33
				c-10.081,124.192-5.02,285.767,14.253,454.963c42.844,376.179,138.489,663.296,227.424,682.7
				c60.295,13.157,106.233,4.195,140.408-27.405c84.131-77.785,103.079-289.871,56.316-630.359
				c-68.064-495.581-253.542-651.929-308.767-688.042C2153.86,1185.369,2135.223,1183.985,2131.67,1184.805z"/>
		</g>
		<g>
			<path style="fill:#E52E2E;" d="M2034.298,2851.693c-209.847,15.516-382.759-157.514-386.483-315.957
				c-12.695-540.073-84.075-733.73-179.136-949.281c-98.488-223.321-151.212-330.355-171.277-371.543
				c-71.142-146.033-0.938-380.648,165.635-462.076s385.099-38.209,488.041,87.452c21.725,26.519,481.154,740.548,440.569,1721.894
				C2385.493,2710.96,2227.835,2837.383,2034.298,2851.693z"/>
		</g>
		<g style="opacity:0.6;">
			<path style="fill:#FFFFFF;" d="M2387.302,2550.949c-1.514,36.434-12.114,71.537-30.102,103.979
				c13.353-29.092,20.741-60.111,21.062-92.186c10.049-981.377-471.576-1695.372-494.153-1721.895
				c-78.283-92.094-217.319-139.954-350.573-126.785c152.39-39.738,325.152,7.434,413.209,114.992
				C1968.449,855.531,2427.912,1569.572,2387.302,2550.949z"/>
		</g>
		<g style="opacity:0.2;">
			<g>
				<path style="fill:#000072;" d="M2393.881,2498.642c-0.413,21.062-1.055,42.216-1.927,63.507
					c-6.149,148.811-163.815,275.228-357.365,289.544c-209.84,15.51-382.74-157.529-386.457-315.975
					c-12.71-540.085-84.064-733.727-179.141-949.302c-98.473-223.284-151.196-330.338-171.295-371.544
					c-39.233-80.577-35.47-188.135,3.763-282.019c1.514,41.573,10.462,81.311,27.395,116.094
					c20.052,41.206,72.776,148.259,171.294,371.544c95.031,215.575,166.431,409.216,179.141,949.301
					c3.717,158.447,176.617,331.485,386.457,315.976C2212.629,2674.892,2338.863,2599.455,2393.881,2498.642z"/>
			</g>
		</g>
		<g>
			<g>
				<path style="fill:#000072;" d="M2008.721,2870.989c-95.042,0-189.461-36.826-262.622-103.191
					c-71.138-64.534-114.741-151.125-116.633-231.631c-12.439-529.136-81.448-724.324-177.581-942.305
					c-93.691-212.446-145.703-319.082-167.915-364.619l-3.069-6.294c-71.555-146.88-9.861-396.687,174.075-486.602
					c171.15-83.662,400.068-42.251,510.3,92.31c13.374,16.323,134.995,205.898,246.67,508.157
					c102.053,276.218,219.253,713.159,198.04,1226.128c-6.499,157.141-170.925,292.017-374.336,307.055l-1.353-18.305l1.353,18.305
					C2026.68,2870.66,2017.698,2870.989,2008.721,2870.989z M1649.349,729.417c-61.199,0-122.969,12.886-178.25,39.91
					c-73.274,35.82-132.554,107.334-162.637,196.206c-28.787,85.039-26.753,175.259,5.442,241.34l3.059,6.279
					c22.305,45.725,74.534,152.805,168.511,365.896c97.854,221.887,168.093,420.359,180.691,956.255
					c1.66,70.649,40.764,147.398,104.6,205.305c72.656,65.908,168.193,99.729,262.18,92.778
					c185.117-13.687,334.621-133.147,340.361-271.963c20.964-506.863-94.888-938.755-195.767-1211.814
					c-109.907-297.495-227.759-481.926-240.661-497.69C1872.093,772.835,1761.685,729.417,1649.349,729.417z"/>
			</g>
		</g>
		<g>
			<path style="fill:#F98D2B;" d="M1370.671,1369.004c0,0-130.496,77.809-126.265,208.988s160.799,465.472,232.736,744.756
				s113.562,457.817,291.633,440.487c178.071-17.33,138.89-406.634,95.007-626.676c-43.883-220.042-50.486-461.784-246.058-517.661
				C1420.251,1562.476,1370.671,1369.004,1370.671,1369.004z"/>
		</g>
		<g style="opacity:0.6;">
			<path style="fill:#FFFFFF;" d="M1781.154,2762.993c101.41-97.968,70.574-420.919,33.085-608.64
				c-39.462-197.91-63.809-416.972-162.852-480.983c-0.183,2.157-0.734,4.176-1.652,6.103c-7.847,16.29-39.784,17.207-71.354,2.019
				c-30.836-14.775-49.879-39.462-43.5-55.752c-124.031-65.434-182.215-194.88-194.697-231.957
				c26.706-26.155,31.708-23.356,31.708-23.356s49.558,193.458,247.054,249.898c195.569,55.89,202.176,297.62,246.044,517.646
				C1907.938,2353.318,1946.345,2730.735,1781.154,2762.993z"/>
		</g>
		<g style="opacity:0.2;">
			<path style="fill:#000072;" d="M1884.092,2621.819c-17.207,80.485-53.366,137.476-119.03,143.854
				c-178.086,17.345-219.705-161.199-291.609-440.465c-71.95-279.311-228.515-613.595-232.737-744.785
				c-2.203-67.82,31.662-121.416,64.838-157.299c-1.836,11.472-2.661,23.447-2.248,35.883
				c4.221,131.144,160.787,465.428,232.737,744.739c71.95,279.266,113.569,457.811,291.61,440.465
				C1849.631,2642.054,1868.307,2634.254,1884.092,2621.819z"/>
		</g>
		<g>
			<path style="fill:#000072;" d="M1745.521,2782.757c-75.999,0.003-132.183-36.797-175.488-114.302
				c-42.466-76.001-70.393-184.568-105.747-322.019l-4.917-19.111c-32.222-125.09-82.414-263.721-126.699-386.033
				c-55.906-154.414-104.189-287.769-106.606-362.71c-4.531-140.376,129.502-221.938,135.21-225.342
				c4.971-2.966,11.05-3.408,16.396-1.204c5.347,2.205,9.343,6.802,10.781,12.402c0.73,2.773,50.237,184.216,234.316,236.809
				c176.052,50.303,208.745,242.329,240.364,428.035c5.816,34.155,11.829,69.475,18.652,103.686
				c20.996,105.278,81.682,459.309-18.872,594.795c-23.752,32.004-54.827,50.086-92.358,53.738
				C1761.983,2782.334,1753.631,2782.754,1745.521,2782.757z M1360.96,1398.304c-33.992,26.389-101.084,89.993-98.208,179.097
				c2.229,69.111,49.592,199.924,104.434,351.394c44.563,123.083,95.073,262.588,127.729,389.375l4.922,19.121
				c67.861,263.836,108.843,423.142,267.161,407.673c27.151-2.642,48.882-15.425,66.436-39.077
				c72.742-98.013,54.075-356.509,12.349-565.74c-6.924-34.719-12.981-70.298-18.84-104.705
				c-31.077-182.534-60.432-354.946-214.258-398.896C1448.321,1589.585,1381.966,1454.515,1360.96,1398.304z"/>
		</g>
		<g>
			<g>
				<path style="fill:#FFCF06;" d="M2035.487,2555.086c-54.926,0.004-78.792-10.182-92.613-19.692
					c-14.888-10.238-23.746-24.555-25.618-41.402c-7.68-69.107,97.931-94.1,220.216-123.043
					c44.543-10.542,90.599-21.44,125.799-33.649c34.052-11.806,46.746-21.042,51.327-25.58c-6.355-2.666-22.07-6.853-58.025-6.878
					c-0.112,0-0.227,0-0.339,0c-36.868,0-82.533,4.183-126.703,8.224c-109.463,10.023-178.171,14.81-209.841-11.944
					c-10.478-8.845-16.555-20.553-17.579-33.851c-4.632-60.279,83.369-82.495,205.174-113.243
					c49.197-12.424,100.069-25.267,138.681-39.975c34.875-13.285,47.731-23.716,52.368-28.974
					c-7.388-1.778-23.518-3.583-56.846-0.433c-36.199,3.42-81.067,11.506-124.462,19.327
					c-51.018,9.192-103.772,18.702-144.599,20.999c-22.614,1.264-91.391,5.134-101.655-45.824
					c-14.665-72.818,104.419-109.223,242.307-151.375c44.088-13.478,105.147-32.145,138.064-47.585
					c-9.334,0.077-22.109,0.926-39.469,3.253c-36.212,4.864-81.046,14.571-124.402,23.96
					c-119.157,25.798-194.088,40.352-231.551,15.406c-11.95-7.958-19.608-19.422-22.145-33.152
					c-2.481-13.431-2.141-34.202,13.574-56.893c28.974-41.834,103.553-79.431,227.994-114.94
					c87.672-25.018,166.712-39.237,170.033-39.829c16.718-2.966,32.655,8.138,35.638,24.839
					c2.983,16.696-8.138,32.655-24.838,35.638c-118.608,21.2-320.769,75.042-358.323,129.274c-1.573,2.271-2.52,4.131-3.073,5.635
					c28.46,6.724,122.195-13.568,179.688-26.021c121.085-26.218,197.229-40.96,235.241-15.063
					c12.188,8.31,19.854,20.227,22.164,34.468c9.042,55.668-74.374,81.166-200.636,119.765
					c-48.605,14.858-98.869,30.225-138.184,46.347c-33.979,13.936-49.484,24.397-56.461,30.568
					c31.845,4.937,116.675-10.366,169.733-19.932c121.376-21.873,197.657-33.821,235.052-5.245
					c12.308,9.406,19.524,22.469,20.87,37.776c4.86,55.415-63.228,82.983-85.602,92.043c-43.27,17.523-99.624,31.751-154.126,45.507
					c-40.802,10.302-79.345,20.034-110.115,30.474c-16.889,5.729-28.168,10.628-35.668,14.502
					c33.289,3.767,100.078-2.348,147.389-6.681c121.745-11.151,198.279-15.676,234.461,15.26
					c11.935,10.212,18.766,23.711,19.756,39.049c4.508,69.857-102.555,95.197-226.524,124.539
					c-42.786,10.126-87.033,20.596-120.862,32.085c-31.674,10.761-44.611,19.259-49.711,23.72
					c11.772,5.13,54.168,15.543,186.147-6.201c88.726-14.618,171.778-36.178,172.605-36.392
					c16.422-4.286,33.191,5.554,37.476,21.971c4.281,16.417-5.558,33.195-21.971,37.476c-3.313,0.866-82.118,21.32-170.732,36.328
					C2118.504,2550.912,2070.632,2555.086,2035.487,2555.086z M1893.99,1878.496h0.043H1893.99z"/>
			</g>
		</g>
		<g>
			<g>
				<path style="fill:#000072;" d="M2035.447,2567.586c-60.808,0-85.996-12.495-99.658-21.894
					c-17.964-12.351-28.669-29.753-30.957-50.318c-8.901-80.1,101.689-106.274,229.741-136.584
					c44.282-10.479,90.01-21.301,124.6-33.298c7.712-2.673,14.202-5.181,19.661-7.488c-6.238-0.403-13.601-0.654-22.271-0.662
					c-36.599,0-81.946,4.15-125.798,8.164c-116.179,10.642-183.596,15.193-219.141-14.834
					c-13.089-11.047-20.689-25.723-21.978-42.439c-5.437-70.786,86.848-94.082,214.58-126.323
					c48.95-12.363,99.402-25.105,137.29-39.539c5.903-2.246,11.101-4.392,15.674-6.416c-4.387,0.263-9.216,0.635-14.526,1.135
					c-35.642,3.369-80.208,11.399-123.303,19.165c-51.594,9.297-104.678,18.86-146.23,21.199
					c-67.869,3.799-106.387-14.993-114.612-55.837c-16.904-83.926,107.2-121.865,250.901-165.796
					c1.504-0.459,3.025-0.923,4.565-1.394c-8.032,1.719-16.074,3.462-24.067,5.193c-126.045,27.295-199.395,41.379-241.125,13.594
					c-14.829-9.878-24.341-24.153-27.507-41.287c-2.913-15.759-2.573-40.054,15.591-66.282
					c30.684-44.304,107.5-83.506,234.839-119.841c88.794-25.342,167.949-39.526,171.277-40.117
					c23.457-4.17,45.945,11.516,50.129,34.949c4.189,23.457-11.489,45.95-34.946,50.139
					c-114.172,20.408-283.359,66.499-337.79,111.147c39.538-2.585,109.709-17.783,151.24-26.78
					c124.329-26.921,202.673-41.965,244.924-13.176c15.098,10.295,24.595,25.093,27.466,42.795
					c10.791,66.433-76.768,93.198-209.302,133.716c-48.33,14.773-98.284,30.042-137.114,45.964
					c-4.568,1.873-8.769,3.672-12.637,5.396c37.49-3.943,85.503-12.598,118.804-18.601c124.88-22.507,203.438-34.663,245.005-2.9
					c15.171,11.597,24.07,27.715,25.732,46.611c5.667,64.636-68.87,94.809-93.364,104.724
					c-44.104,17.861-100.864,32.188-155.757,46.04c-26.531,6.699-52.073,13.149-75.037,19.68c25.139-1.621,51.313-4.016,72.417-5.95
					c125.032-11.453,203.813-15.943,243.75,18.203c14.563,12.458,22.896,28.97,24.106,47.749
					c5.19,80.388-106.628,106.855-236.106,137.503c-42.603,10.083-86.501,20.473-119.734,31.76
					c-6.272,2.132-11.731,4.15-16.472,6.04c26.235,1.509,71.213-0.227,146.858-12.691c86.052-14.179,167.993-35.251,171.438-36.142
					c11.218-2.922,22.852-1.311,32.81,4.524c9.956,5.837,17.043,15.205,19.958,26.375c2.915,11.174,1.304,22.81-4.536,32.769
					c-5.837,9.958-15.205,17.046-26.375,19.958c-3.293,0.862-81.919,21.335-171.799,36.558
					c-60.886,10.313-111.748,15.539-151.174,15.539l0,0C2035.477,2567.586,2035.459,2567.586,2035.447,2567.586z M2256.233,2292.342
					c36.88,0.027,54.69,4.282,63.196,7.849c3.853,1.614,6.643,5.046,7.439,9.145c0.796,4.099-0.508,8.325-3.474,11.265
					c-9.233,9.143-28.606,19.001-56.03,28.511c-35.786,12.412-82.144,23.384-126.973,33.992
					c-116.557,27.588-217.17,51.401-210.71,109.507c1.479,13.32,8.301,24.25,20.276,32.483
					c10.916,7.512,31.651,17.493,85.488,17.493c0.015,0,0.027,0,0.042,0l0,0c38.032,0,87.49-5.11,146.999-15.188
					c88.801-15.039,168.857-35.888,169.656-36.096c4.717-1.23,8.667-4.219,11.128-8.416c2.461-4.199,3.14-9.104,1.912-13.813
					c-1.23-4.709-4.219-8.659-8.416-11.121c-4.197-2.458-9.092-3.142-13.809-1.909c-8.853,2.287-88.057,22.515-173.73,36.631
					c-129.673,21.365-176.694,12.51-193.171,5.327c-3.926-1.712-6.702-5.313-7.358-9.543c-0.657-4.231,0.896-8.503,4.119-11.323
					c9.568-8.372,28.213-17.415,53.923-26.15c34.358-11.667,78.843-22.197,121.865-32.38
					c118.599-28.071,220.896-52.285,217.068-111.602c-0.767-11.892-6.096-22.39-15.41-30.359
					c-32.371-27.678-110.183-22.844-225.193-12.307c-48.706,4.458-115.378,10.554-149.934,6.653
					c-5.469-0.62-9.89-4.743-10.886-10.159c-0.999-5.412,1.665-10.842,6.555-13.369c9.536-4.927,22.114-10.051,37.388-15.234
					c31.223-10.593,69.971-20.376,110.994-30.735c54.15-13.667,110.061-27.779,152.571-44.995
					c20.256-8.198,81.895-33.15,77.844-79.363c-1.047-11.878-6.433-21.616-16.011-28.936c-32.566-24.89-106.816-13.73-225.244,7.615
					c-55.828,10.066-139.98,25.232-173.865,19.983c-4.79-0.745-8.718-4.187-10.08-8.838c-1.365-4.651,0.083-9.67,3.716-12.881
					c11.423-10.1,31.609-21.123,59.995-32.766c39.902-16.365,90.42-31.804,139.272-46.736
					c115.681-35.364,199.248-60.911,191.953-105.808c-1.77-10.925-7.446-19.719-16.868-26.145
					c-33.13-22.568-107.31-8.655-225.554,16.953c-69.18,14.985-138.85,29.199-173.726,27.434c-2.283,2.454-5.539,3.987-9.155,3.987
					c-6.904,0-12.522-5.596-12.522-12.5c0-1.37,0.22-2.69,0.625-3.923c-0.176-1.848,0.059-3.735,0.715-5.515
					c1.003-2.722,2.483-5.481,4.526-8.43c44.712-64.57,279.648-118.958,366.399-134.463c9.89-1.768,16.499-11.248,14.734-21.135
					c-1.765-9.875-11.243-16.472-21.147-14.729c-3.271,0.581-81.208,14.548-168.789,39.541
					c-119.863,34.207-194.27,71.226-221.147,110.037c-13.269,19.163-13.611,36.411-11.557,47.505
					c1.934,10.476,7.581,18.894,16.78,25.022c32.593,21.699,105.601,7.971,221.977-17.219
					c43.582-9.438,88.647-19.199,125.381-24.131c15.959-2.139,29.763-3.271,41.03-3.367c0.037,0,0.071,0,0.105,0
					c5.833,0,10.894,4.036,12.19,9.729c1.301,5.73-1.563,11.592-6.882,14.087c-33.745,15.833-94.995,34.553-139.717,48.223
					c-126.582,38.696-246.135,75.247-233.708,136.953c7.278,36.142,54.116,37.737,88.672,35.815
					c40.056-2.253,92.375-11.682,142.974-20.799c43.862-7.903,88.95-16.028,125.64-19.495c27.61-2.612,48.115-2.368,60.95,0.725
					c4.26,1.028,7.673,4.209,8.992,8.389c1.321,4.18,0.356,8.743-2.542,12.031c-9.175,10.405-28.984,21.604-57.292,32.388
					c-39.253,14.951-90.422,27.874-139.91,40.371c-116.037,29.292-199.761,50.425-195.935,100.208
					c0.774,10.029,5.208,18.528,13.181,25.259c27.312,23.071,94.021,18.809,200.637,9.045
					C2172.898,2296.546,2218.821,2292.342,2256.233,2292.342z"/>
			</g>
		</g>
		<g>
			<path style="fill:#E52E2E;" d="M1686.352,2422.881c-46.988,124.124-113.753,88.424-113.753,88.424
				c-40.426,56.395-98.748,13.078-98.748,13.078c-28.22,31.891-92.14-3.671-92.14-67.637c0-51.393,49.787-82.138,69.335-92.232
				c4.772-2.432,7.755-3.671,7.755-3.671s-152.894-17.529-226.955-91.13c-19.089-18.952-32.947-41.573-37.581-68.646
				c-0.275-1.284-0.459-2.57-0.642-3.854c-18.813-135.411,235.949-383.245,317.856-334.742c6.516,3.854,11.563,8.58,15.372,14.041
				c50.154,71.95-118.8,271.786-118.8,271.786c8.443,1.973,16.749,3.992,24.825,6.057
				C1642.668,2208.27,1731.642,2303.393,1686.352,2422.881z"/>
		</g>
		<g style="opacity:0.2;">
			<path style="fill:#000072;" d="M1635.372,2330.007c0,0-13.491,37.352-62.773,55.569c-26.935,9.911-67.362-10.508-121.554-21.062
				c4.772-2.432,7.755-3.671,7.755-3.671s-152.894-17.529-226.955-91.13c-19.089-18.952-32.947-41.573-37.581-68.646
				c55.752,44.877,168.083,113.524,287.709,62.543C1481.973,2263.609,1527.722,2356.53,1635.372,2330.007z"/>
		</g>
		<g style="opacity:0.6;">
			<path style="fill:#FFFFFF;" d="M1686.352,2422.881c-18.309-160.786-254.487-268.391-254.487-268.391s0.321-0.046,1.01-0.138
				C1642.668,2208.27,1731.642,2303.393,1686.352,2422.881z"/>
		</g>
		<g style="opacity:0.6;">
			<path style="fill:#FFFFFF;" d="M1526.85,1876.51c-58.551,13.995-194.146,67.316-282.524,268.345
				c-17.85,40.609-20.603,82.734-12.481,124.858c-20.007-19.823-34.232-43.73-38.224-72.501
				c-18.813-135.411,235.949-383.245,317.856-334.742C1517.994,1866.323,1523.042,1871.049,1526.85,1876.51z"/>
		</g>
		<g>
			<path style="fill:#000072;" d="M1521.229,2558.616c-18.565,0-35-6.402-45.662-11.875c-14.778,9.17-33.455,10.539-52.434,3.344
				c-29.761-11.272-59.79-44.504-59.79-93.34c0-38.965,22.686-67.415,45.095-86.011c-76.477-16.46-217.778-61.465-232.991-171.001
				c-14.944-107.6,115.371-259.339,211.165-323.091c56.929-37.893,103.337-48.262,134.202-29.993l0,0
				c17.7,10.476,28.916,27.039,32.439,47.898c12.324,73.008-72.83,191.899-112.744,242.835
				c134.885,35.042,221.421,86.894,257.446,154.329c22.414,41.958,24.292,88.281,5.581,137.683
				c-20.408,53.877-47.563,87.495-80.713,99.922c-17.803,6.667-33.335,5.72-44.009,3.35c-12.934,13.911-28.232,22.314-45.625,25.031
				C1529.131,2558.333,1525.132,2558.616,1521.229,2558.616z M1473.86,2506.021c3.818,0,7.659,1.187,10.938,3.621
				c0.134,0.095,21.267,15.259,42.927,11.755c11.45-1.851,21.247-8.655,29.951-20.801c5.364-7.488,15.449-9.846,23.582-5.491
				c0.249,0.115,12.864,6.108,29.487-0.474c15.469-6.123,38.169-24.668,58.459-78.24c14.795-39.055,13.574-75.186-3.628-107.383
				c-32.805-61.406-123.293-110.789-261.687-142.813c-6.23-1.443-11.262-6.025-13.279-12.095c-2.016-6.069-0.73-12.751,3.398-17.637
				c37.756-44.682,133.464-174.15,123.045-235.813c-1.738-10.286-6.484-17.407-14.937-22.41
				c-16.868-9.995-53.333,1.118-95.168,28.962c-99.507,66.226-206.426,206.228-195.139,287.48
				c16.626,119.719,246.77,147.642,249.094,147.91c8.306,0.959,14.917,7.41,16.077,15.691c1.16,8.279-3.42,16.296-11.142,19.499
				c-0.62,0.259-65.786,28.235-65.786,78.96c0,31.155,18.704,52.429,36.084,59.011c5.823,2.205,16.687,4.68,23.965-3.542
				C1463.712,2508.135,1468.765,2506.021,1473.86,2506.021z"/>
		</g>
		<g>
			<path style="fill:#000072;" d="M1493.318,2403.919c-8.147,0-15.586-5.464-17.744-13.713c-1.939-7.402-4.575-11.099-6.396-12.09
				c-1.56-0.849-3.809-0.146-3.833-0.139l0.554-0.217l-14.185-33.858c1.726-0.725,17.3-6.812,33.616,1.245
				c12.498,6.179,21.162,18.21,25.757,35.767c2.566,9.804-3.303,19.836-13.11,22.402
				C1496.419,2403.723,1494.856,2403.919,1493.318,2403.919z"/>
		</g>
		<g>
			<path style="fill:#000072;" d="M1473.76,2539.348c-3.572,0-7.148-1.279-10.005-3.879c-1.406-1.279-34.338-32.017-26.155-91.35
				c4.128-29.948,34.78-68.833,69.619-76.042c14.192-2.947,40.989-2.934,61.03,30.112c4.297,7.083,2.038,16.306-5.046,20.603
				c-7.078,4.299-16.309,2.036-20.603-5.046c-12.046-19.861-25.037-17.163-29.299-16.294c-21.611,4.475-43.347,31.653-45.984,50.764
				c-5.933,43.022,15.82,64.292,16.748,65.176c5.955,5.669,6.301,15.129,0.701,21.145
				C1481.8,2537.722,1477.784,2539.348,1473.76,2539.348z"/>
		</g>
		<g>
			<path style="fill:#000072;" d="M1557.905,2520.796l-2.689-3.889c-0.815-1.201-1.566-2.368-2.269-3.572
				c-1.423-2.402-2.792-4.78-4.023-7.234c-2.474-4.895-4.697-9.895-6.529-15.063c-3.795-10.276-6.323-21.123-7.445-32.239
				c-1.149-11.108-0.878-22.49,1.099-33.665c1.135-5.637,2.242-10.894,4.313-16.772c2.061-5.684,4.656-11.138,7.773-16.257
				c6.288-10.215,14.885-18.931,25.235-25.234c10.273-6.265,23.118-9.851,35.972-7.744c6.371,1.052,12.454,3.792,17.374,7.544
				c4.964,3.743,8.718,8.459,11.44,13.369c2.76,4.902,4.676,9.99,5.803,15.112c1.323,5.076,1.741,10.215,2.072,15.232
				c0.092,1.392-0.961,2.593-2.352,2.686c-1.11,0.073-2.098-0.583-2.5-1.558l-0.043-0.107c-3.641-8.879-8.124-17.319-14.094-23.257
				c-5.941-6.028-12.934-8.901-19.573-8.257c-6.68,0.378-13.205,3.962-18.756,8.801c-5.573,4.939-9.774,11.531-12.793,18.367
				c-1.437,3.479-2.507,7.078-3.24,10.71c-0.676,3.464-0.896,7.886-1.357,11.826l-0.178,6.121c-0.044,2.034,0.185,4.102,0.245,6.138
				c0.03,2.034,0.258,4.092,0.458,6.14c0.152,2.048,0.385,4.094,0.779,6.145c1.236,8.193,3.255,16.372,5.802,24.485
				c1.342,4.026,2.676,8.093,4.271,12.036c0.777,1.97,1.537,3.972,2.372,5.876l2.214,5.242l0.988,2.341
				c3.741,8.86-0.41,19.077-9.271,22.817C1571.268,2530.203,1562.496,2527.444,1557.905,2520.796z"/>
		</g>
		<g>
			<path style="fill:#000072;" d="M1406.821,2166.628c-16.764-4.121-33.823-8.057-50.826-11.755
				c-17.042-3.674-34.102-7.183-51.406-9.893c17.198-3.411,34.649-6.018,52.087-8.45c17.478-2.402,34.883-4.58,52.557-6.533
				c10.233-1.13,19.445,6.25,20.576,16.482c1.13,10.234-6.249,19.446-16.483,20.576
				C1411.111,2167.3,1408.868,2167.122,1406.821,2166.628z"/>
		</g>
		<g>
			<path style="fill:#000072;" d="M1526.461,2398.254c-1.317-0.259-2.113-0.508-2.883-0.745c-0.815-0.242-1.621-0.488-2.328-0.759
				c-1.455-0.544-2.952-1.04-4.312-1.67c-2.797-1.15-5.466-2.498-8.067-3.906c-2.605-1.406-5.084-3.062-7.537-4.651
				c-2.361-1.829-4.767-3.467-6.947-5.466c-8.854-7.751-15.786-17.625-19.595-28.171c-3.619-10.637-4.592-21.357-3.775-31.504
				c0.35-5.066,1.55-9.995,2.296-14.832l4.188-14.05l0.388,14.399c0.795,4.719,1.141,9.39,2.283,13.843
				c2.148,8.955,5.924,17.058,10.852,23.574c5.141,6.421,11.63,10.947,18.649,13.843c1.716,0.771,3.64,1.235,5.372,1.877
				c1.877,0.427,3.68,0.938,5.545,1.23c1.868,0.303,3.704,0.559,5.533,0.647c0.917,0.11,1.779,0.051,2.646,0.078
				c0.453,0.02,0.824-0.017,1.188-0.051c0.405-0.017,0.786-0.051,0.656-0.161c10.071,1.147,17.307,10.242,16.161,20.313
				C1545.627,2392.166,1536.533,2399.399,1526.461,2398.254z"/>
		</g>
		<g>
			<g>
				<path style="fill:#5D4482;" d="M2141.478,1265.339c-11.278,11.278-25.408,21.459-40.635,30.235
					c-27.646,15.886-58.847,26.988-82.763,30.85c-11.366,1.931-21.064,2.15-27.997,0.483c-0.658-0.176-1.36-0.351-2.063-0.57
					c-13.384-3.95-32.342-16.456-52.66-36.643c-24.574-24.399-51.123-60.031-72.231-105.231c0,0,24.926-42.786,72.231-76.444
					c15.228-10.839,32.825-20.713,52.66-27.91c9.479-3.466,19.528-6.275,30.06-8.293c24.794-4.74,52.44-4.959,82.763,1.887
					c13.033,2.94,26.593,7.197,40.635,12.946C2141.478,1086.647,2182.86,1223.957,2141.478,1265.339z"/>
			</g>
			<defs>
				<filter id="Adobe_OpacityMaskFilter" filterUnits="userSpaceOnUse" x="1935.36" y="1080.108" width="52.66" height="246.227">
					<feFlood  style="flood-color:white;flood-opacity:1" result="back"/>
					<feBlend  in="SourceGraphic" in2="back" mode="normal"/>
				</filter>
			</defs>
			<mask maskUnits="userSpaceOnUse" x="1935.36" y="1080.108" width="52.66" height="246.227" id="SVGID_1_">
				<g style="filter:url(#Adobe_OpacityMaskFilter);">
					<defs>
						
							<filter id="Adobe_OpacityMaskFilter_00000041295933121799980210000002594736882197899705_" filterUnits="userSpaceOnUse" x="1935.36" y="1080.108" width="52.66" height="246.227">
							<feFlood  style="flood-color:white;flood-opacity:1" result="back"/>
							<feBlend  in="SourceGraphic" in2="back" mode="normal"/>
						</filter>
					</defs>
					<mask maskUnits="userSpaceOnUse" x="1935.36" y="1080.108" width="52.66" height="246.227" id="SVGID_1_">
						<g style="filter:url(#Adobe_OpacityMaskFilter_00000041295933121799980210000002594736882197899705_);">
						</g>
					</mask>
					
						<linearGradient id="SVGID_00000049189363781630150270000010817017017518914191_" gradientUnits="userSpaceOnUse" x1="1949.8639" y1="1495.6234" x2="1965.3794" y2="1130.2972">
						<stop  offset="0" style="stop-color:#FFFFFF"/>
						<stop  offset="1" style="stop-color:#000000"/>
					</linearGradient>
					<path style="mask:url(#SVGID_1_);fill:url(#SVGID_00000049189363781630150270000010817017017518914191_);" d="
						M1988.019,1080.108v246.228c-13.384-3.95-32.342-16.456-52.66-36.643v-181.675
						C1950.587,1097.179,1968.184,1087.306,1988.019,1080.108z"/>
				</g>
			</mask>
			
				<linearGradient id="SVGID_00000015342478300108828310000004679087249398912178_" gradientUnits="userSpaceOnUse" x1="1949.8639" y1="1495.6234" x2="1965.3794" y2="1130.2972">
				<stop  offset="0" style="stop-color:#FFFFFF"/>
				<stop  offset="1" style="stop-color:#FFFFFF"/>
			</linearGradient>
			<path style="fill:url(#SVGID_00000015342478300108828310000004679087249398912178_);" d="M1988.019,1080.108v246.228
				c-13.384-3.95-32.342-16.456-52.66-36.643v-181.675C1950.587,1097.179,1968.184,1087.306,1988.019,1080.108z"/>
			<defs>
				
					<filter id="Adobe_OpacityMaskFilter_00000166675487308146815460000000803051097248767394_" filterUnits="userSpaceOnUse" x="2018.079" y="1068.391" width="82.763" height="258.032">
					<feFlood  style="flood-color:white;flood-opacity:1" result="back"/>
					<feBlend  in="SourceGraphic" in2="back" mode="normal"/>
				</filter>
			</defs>
			
				<mask maskUnits="userSpaceOnUse" x="2018.079" y="1068.391" width="82.763" height="258.032" id="SVGID_00000163048984957092980510000014402007769721396626_">
				<g style="filter:url(#Adobe_OpacityMaskFilter_00000166675487308146815460000000803051097248767394_);">
					<defs>
						
							<filter id="Adobe_OpacityMaskFilter_00000078763314998298530410000000659391179846244484_" filterUnits="userSpaceOnUse" x="2018.079" y="1068.391" width="82.763" height="258.032">
							<feFlood  style="flood-color:white;flood-opacity:1" result="back"/>
							<feBlend  in="SourceGraphic" in2="back" mode="normal"/>
						</filter>
					</defs>
					
						<mask maskUnits="userSpaceOnUse" x="2018.079" y="1068.391" width="82.763" height="258.032" id="SVGID_00000163048984957092980510000014402007769721396626_">
						<g style="filter:url(#Adobe_OpacityMaskFilter_00000078763314998298530410000000659391179846244484_);">
						</g>
					</mask>
					
						<linearGradient id="SVGID_00000147900157344652041000000017926949184629475993_" gradientUnits="userSpaceOnUse" x1="2046.0396" y1="1499.708" x2="2061.5549" y2="1134.3842">
						<stop  offset="0" style="stop-color:#FFFFFF"/>
						<stop  offset="1" style="stop-color:#000000"/>
					</linearGradient>
					
						<path style="mask:url(#SVGID_00000163048984957092980510000014402007769721396626_);fill:url(#SVGID_00000147900157344652041000000017926949184629475993_);" d="
						M2100.842,1073.702v221.872c-27.646,15.886-58.847,26.988-82.763,30.85v-254.609
						C2042.873,1067.075,2070.519,1066.856,2100.842,1073.702z"/>
				</g>
			</mask>
			
				<linearGradient id="SVGID_00000149363779308382259440000012113046039980358273_" gradientUnits="userSpaceOnUse" x1="2046.0396" y1="1499.708" x2="2061.5549" y2="1134.3842">
				<stop  offset="0" style="stop-color:#FFFFFF"/>
				<stop  offset="1" style="stop-color:#FFFFFF"/>
			</linearGradient>
			<path style="fill:url(#SVGID_00000149363779308382259440000012113046039980358273_);" d="M2100.842,1073.702v221.872
				c-27.646,15.886-58.847,26.988-82.763,30.85v-254.609C2042.873,1067.075,2070.519,1066.856,2100.842,1073.702z"/>
			<g>
				<path style="fill:#5D4482;" d="M1765.353,1403.57c-11.278,11.278-25.408,21.459-40.636,30.235
					c-27.646,15.885-58.847,26.988-82.763,30.85c-11.366,1.931-21.064,2.15-27.997,0.483c-0.658-0.176-1.36-0.351-2.063-0.57
					c-13.384-3.95-32.342-16.456-52.659-36.643c-24.574-24.399-51.123-60.031-72.231-105.231c0,0,24.926-42.786,72.231-76.444
					c15.227-10.839,32.825-20.713,52.659-27.91c9.479-3.466,19.528-6.275,30.06-8.293c24.794-4.74,52.44-4.959,82.763,1.887
					c13.033,2.94,26.593,7.197,40.636,12.946C1765.353,1224.879,1806.734,1362.188,1765.353,1403.57z"/>
			</g>
			<defs>
				
					<filter id="Adobe_OpacityMaskFilter_00000151531239650611993120000001348530038423883698_" filterUnits="userSpaceOnUse" x="1559.235" y="1218.34" width="52.66" height="246.227">
					<feFlood  style="flood-color:white;flood-opacity:1" result="back"/>
					<feBlend  in="SourceGraphic" in2="back" mode="normal"/>
				</filter>
			</defs>
			
				<mask maskUnits="userSpaceOnUse" x="1559.235" y="1218.34" width="52.66" height="246.227" id="SVGID_00000178201808368351704750000003989840355037647005_">
				<g style="filter:url(#Adobe_OpacityMaskFilter_00000151531239650611993120000001348530038423883698_);">
					<defs>
						
							<filter id="Adobe_OpacityMaskFilter_00000129204215642774228890000015494928352626082980_" filterUnits="userSpaceOnUse" x="1559.235" y="1218.34" width="52.66" height="246.227">
							<feFlood  style="flood-color:white;flood-opacity:1" result="back"/>
							<feBlend  in="SourceGraphic" in2="back" mode="normal"/>
						</filter>
					</defs>
					
						<mask maskUnits="userSpaceOnUse" x="1559.235" y="1218.34" width="52.66" height="246.227" id="SVGID_00000178201808368351704750000003989840355037647005_">
						<g style="filter:url(#Adobe_OpacityMaskFilter_00000129204215642774228890000015494928352626082980_);">
						</g>
					</mask>
					
						<linearGradient id="SVGID_00000075846990435218780660000006381482366556787901_" gradientUnits="userSpaceOnUse" x1="1590.2227" y1="1570.0209" x2="1584.5807" y2="1270.9906">
						<stop  offset="0" style="stop-color:#FFFFFF"/>
						<stop  offset="1" style="stop-color:#000000"/>
					</linearGradient>
					
						<path style="mask:url(#SVGID_00000178201808368351704750000003989840355037647005_);fill:url(#SVGID_00000075846990435218780660000006381482366556787901_);" d="
						M1611.894,1218.34v246.227c-13.384-3.95-32.342-16.456-52.659-36.643V1246.25
						C1574.462,1235.411,1592.059,1225.537,1611.894,1218.34z"/>
				</g>
			</mask>
			
				<linearGradient id="SVGID_00000041272509016483482410000006217262659712489858_" gradientUnits="userSpaceOnUse" x1="1590.2227" y1="1570.0209" x2="1584.5807" y2="1270.9906">
				<stop  offset="0" style="stop-color:#FFFFFF"/>
				<stop  offset="1" style="stop-color:#FFFFFF"/>
			</linearGradient>
			<path style="fill:url(#SVGID_00000041272509016483482410000006217262659712489858_);" d="M1611.894,1218.34v246.227
				c-13.384-3.95-32.342-16.456-52.659-36.643V1246.25C1574.462,1235.411,1592.059,1225.537,1611.894,1218.34z"/>
			<defs>
				
					<filter id="Adobe_OpacityMaskFilter_00000183218700272758018150000012802996775310022023_" filterUnits="userSpaceOnUse" x="1641.954" y="1206.622" width="82.763" height="258.032">
					<feFlood  style="flood-color:white;flood-opacity:1" result="back"/>
					<feBlend  in="SourceGraphic" in2="back" mode="normal"/>
				</filter>
			</defs>
			
				<mask maskUnits="userSpaceOnUse" x="1641.954" y="1206.622" width="82.763" height="258.032" id="SVGID_00000013891831219241685730000001277544283455822473_">
				<g style="filter:url(#Adobe_OpacityMaskFilter_00000183218700272758018150000012802996775310022023_);">
					<defs>
						
							<filter id="Adobe_OpacityMaskFilter_00000121988744179200227940000012415236387739563420_" filterUnits="userSpaceOnUse" x="1641.954" y="1206.622" width="82.763" height="258.032">
							<feFlood  style="flood-color:white;flood-opacity:1" result="back"/>
							<feBlend  in="SourceGraphic" in2="back" mode="normal"/>
						</filter>
					</defs>
					
						<mask maskUnits="userSpaceOnUse" x="1641.954" y="1206.622" width="82.763" height="258.032" id="SVGID_00000013891831219241685730000001277544283455822473_">
						<g style="filter:url(#Adobe_OpacityMaskFilter_00000121988744179200227940000012415236387739563420_);">
						</g>
					</mask>
					
						<linearGradient id="SVGID_00000123419678616848058530000018098193521603786390_" gradientUnits="userSpaceOnUse" x1="1687.6731" y1="1568.182" x2="1682.0311" y2="1269.1511">
						<stop  offset="0" style="stop-color:#FFFFFF"/>
						<stop  offset="1" style="stop-color:#000000"/>
					</linearGradient>
					
						<path style="mask:url(#SVGID_00000013891831219241685730000001277544283455822473_);fill:url(#SVGID_00000123419678616848058530000018098193521603786390_);" d="
						M1724.717,1211.933v221.872c-27.646,15.885-58.847,26.988-82.763,30.85v-254.609
						C1666.748,1205.307,1694.394,1205.087,1724.717,1211.933z"/>
				</g>
			</mask>
			
				<linearGradient id="SVGID_00000178890100260500764670000017849895029519935675_" gradientUnits="userSpaceOnUse" x1="1687.6731" y1="1568.182" x2="1682.0311" y2="1269.1511">
				<stop  offset="0" style="stop-color:#FFFFFF"/>
				<stop  offset="1" style="stop-color:#FFFFFF"/>
			</linearGradient>
			<path style="fill:url(#SVGID_00000178890100260500764670000017849895029519935675_);" d="M1724.717,1211.933v221.872
				c-27.646,15.885-58.847,26.988-82.763,30.85v-254.609C1666.748,1205.307,1694.394,1205.087,1724.717,1211.933z"/>
			<g>
				<path style="fill:#000072;" d="M1624.981,1484.612c-5.669,0-10.793-0.542-15.317-1.628c-0.129-0.032-0.688-0.178-0.818-0.212
					c-0.794-0.21-1.619-0.432-2.444-0.691c-17.043-5.024-38.494-19.666-60.105-41.135c-20.693-20.547-50.667-56.396-75.925-110.486
					c-2.546-5.452-2.258-11.807,0.771-17.007c1.099-1.885,27.495-46.614,77.451-82.158c18.081-12.871,37.273-23.037,57.041-30.208
					c10.527-3.853,21.599-6.907,32.864-9.067c29.231-5.588,59.597-4.915,90.261,2.012c14.314,3.228,28.967,7.891,43.547,13.862
					c5.12,2.095,9.021,6.389,10.618,11.689c4.56,15.129,43.171,149.199-4.595,196.965c-11.814,11.816-26.77,22.971-44.448,33.159
					c-28.34,16.284-61.607,28.643-89.002,33.066C1637.672,1483.999,1631.019,1484.612,1624.981,1484.612z M1508.04,1324.048
					c17.412,34.863,39.951,66.848,64.126,90.852c19.856,19.727,36.223,29.495,44.922,32.061l1.116,0.315
					c0.024,0.005,0.476,0.125,0.498,0.132c1.58,0.371,7.654,1.279,20.178-0.85c23.052-3.723,52.383-14.7,76.692-28.669
					c14.873-8.569,27.261-17.756,36.802-27.297c21.929-21.929,12.388-99.065-2.151-151.914c-9.956-3.691-19.858-6.653-29.543-8.838
					c-25.715-5.806-51.045-6.401-75.278-1.765c-9.324,1.787-18.476,4.314-27.2,7.505c-16.697,6.057-32.939,14.673-48.323,25.625
					C1538.284,1283.682,1517.198,1310.874,1508.04,1324.048z"/>
			</g>
			<g>
				<path style="fill:#000072;" d="M2001.106,1346.382c-5.669,0-10.793-0.542-15.317-1.628c-0.129-0.032-0.693-0.181-0.823-0.212
					c-0.786-0.208-1.604-0.43-2.422-0.686c-17.068-5.034-38.518-19.678-60.122-41.143c-20.691-20.542-50.662-56.389-75.925-110.483
					c-2.546-5.452-2.258-11.807,0.771-17.004c1.099-1.887,27.493-46.619,77.451-82.163c18.088-12.874,37.28-23.04,57.036-30.208
					c10.532-3.853,21.607-6.907,32.869-9.067c29.236-5.586,59.602-4.907,90.261,2.009c14.304,3.228,28.958,7.893,43.547,13.865
					c5.12,2.097,9.021,6.394,10.618,11.692c4.561,15.129,43.171,149.199-4.595,196.965c-11.809,11.809-26.763,22.964-44.448,33.159
					c-28.34,16.284-61.606,28.643-89.001,33.066C2013.797,1345.769,2007.142,1346.382,2001.106,1346.382z M1884.166,1185.816
					c17.414,34.868,39.953,66.853,64.126,90.852c19.851,19.724,36.221,29.497,44.922,32.063l1.111,0.313
					c0.022,0.005,0.481,0.127,0.503,0.134c1.577,0.371,7.647,1.279,20.178-0.85c23.052-3.723,52.383-14.7,76.692-28.669
					c14.878-8.574,27.268-17.764,36.802-27.297c21.929-21.929,12.388-99.065-2.151-151.917c-9.961-3.691-19.866-6.655-29.543-8.838
					c-25.71-5.803-51.04-6.392-75.281-1.765c-9.319,1.787-18.474,4.312-27.202,7.505c-16.684,6.055-32.927,14.67-48.32,25.625
					C1914.407,1145.452,1893.323,1172.644,1884.166,1185.816z"/>
			</g>
			<g>
				<path style="fill:#000072;" d="M1765.335,1243.235c-3.491,0-7.019-0.994-10.144-3.071c-8.442-5.61-10.737-17.004-5.125-25.447
					c38.459-57.854,94.868-56.365,119.319-47.51c9.529,3.457,14.453,13.984,10.999,23.513c-3.438,9.485-13.867,14.419-23.379,11.045
					c-4.661-1.582-45.191-13.628-76.367,33.274C1777.103,1240.357,1771.275,1243.235,1765.335,1243.235z"/>
			</g>
			<g>
				<path style="fill:#000072;" d="M1269.764,1462.351c-8.569,0-16.23-6.033-17.979-14.756c-10.2-50.933,37.83-84.128,67.817-95.713
					c0.503-0.195,1.016-0.366,1.533-0.515l160.786-46.311c9.736-2.805,19.91,2.817,22.717,12.556
					c2.808,9.741-2.815,19.912-12.556,22.717l-159.849,46.042c-5.752,2.422-50.769,22.485-44.453,54.016
					c1.99,9.939-4.453,19.609-14.394,21.602C1272.171,1462.232,1270.958,1462.349,1269.764,1462.351z"/>
			</g>
		</g>
		<g>
			<path style="fill:#497FEA;" d="M2150.908,920.187c-7.158,23.907-23.402,32.626-100.996,52.632
				c-44.74,11.518-109.944,26.752-205.572,50.843c-115.221,29.001-231.589,86.909-325.611,142.57
				c-0.092,0.046-0.138,0.046-0.138,0.046c-119.259,70.619-202.727,137.568-202.727,137.568
				c-90.626-127.565-99.62-244.989-69.702-342.727c37.031-121.324,133.897-212.317,208.876-254.717
				c29.964-16.932,66.031-28.266,104.162-35.287c0.046-0.046,0.046-0.046,0.046-0.046c119.214-22.026,258.387-1.927,292.022,20.512
				c49.649,33.038,126.739,190.2,126.739,190.2S2162.196,882.607,2150.908,920.187z"/>
		</g>
		<g style="opacity:0.2;">
			<path style="fill:#000072;" d="M2049.911,972.819c-44.74,11.518-109.944,26.752-205.572,50.843
				c-115.221,29.001-231.589,86.909-325.611,142.57c-0.092,0.046-0.138,0.046-0.138,0.046
				c-119.259,70.619-202.727,137.568-202.727,137.568c-49.512-69.702-74.658-136.329-82.412-198.368
				c67.591,7.755,163.035-3.855,186.575-122.793c0,0,82.183,114.716,299.731-43.592
				C1719.757,939.093,1853.058,1003.655,2049.911,972.819z"/>
		</g>
		<g style="opacity:0.6;">
			<path style="fill:#FFFFFF;" d="M2150.617,920.192c-4.221,14.133-11.609,22.943-32.947,31.937
				c-19.318-28.358-171.386-29-171.386-29s-7.571-15.418-19.456-37.581c-26.109-48.64-73.189-129.951-107.283-152.665
				c-33.681-22.393-172.809-42.491-292.068-20.466c0,0,0,0-0.046,0.046c-38.132,7.021-74.199,18.309-104.117,35.241
				c-39.554,22.347-85.257,58.276-124.995,105.034c45.428-67.132,105.906-117.791,156.473-146.332
				c29.918-16.932,65.985-28.266,104.117-35.287c0.046-0.046,0.046-0.046,0.046-0.046c119.214-22.026,258.387-1.927,292.022,20.511
				c49.649,33.038,126.739,190.2,126.739,190.2S2161.905,882.611,2150.617,920.192z"/>
		</g>
		<g>
			<path style="fill:#000072;" d="M1315.86,1322.222c-0.842,0-1.689-0.059-2.534-0.176c-5.005-0.698-9.502-3.428-12.429-7.549
				c-77.517-109.106-104.353-220.356-79.763-330.662c31.309-140.454,140.718-245.842,224.892-293.413
				c29.514-16.704,66.108-29.204,108.767-37.153c0.366-0.093,0.735-0.173,1.106-0.242c122.9-22.708,267.83-1.865,305.552,23.267
				c46.367,30.872,108.828,149.419,127.966,187.266c52.62,0.801,152.515,6.301,174.397,35.84c5.735,7.742,7.395,17.002,4.675,26.072
				c-12.134,40.496-39.771,47.251-193.098,84.707c-34.092,8.328-76.521,18.694-126.567,31.296
				c-96.201,24.214-204.114,71.509-320.74,140.569c-0.298,0.176-0.601,0.344-0.906,0.503
				c-116.399,68.979-199.009,134.978-199.832,135.637C1324.07,1320.813,1320.013,1322.222,1315.86,1322.222z M1563.602,688.936
				c-0.359,0.09-0.723,0.168-1.089,0.237c-39.094,7.197-72.207,18.369-98.416,33.203c-77.627,43.87-178.447,140.757-207.136,269.448
				c-21.064,94.5,0.139,190.505,63.037,285.627c29.839-22.688,99.981-74.106,189.251-126.951c0.3-0.178,0.603-0.347,0.911-0.505
				c119.368-70.608,230.296-119.099,329.702-144.121c50.173-12.632,92.671-23.015,126.819-31.355
				c127.19-31.072,156.536-38.687,164.946-55.276c-16.978-10.1-85.295-18.782-153.699-19.087
				c-6.973-0.032-13.328-4.011-16.399-10.271c-20.847-42.49-83.125-158.203-120.425-183.037
				C1812.632,687.876,1679.268,667.84,1563.602,688.936z M1518.731,1166.25h0.049H1518.731z"/>
		</g>
		<g>
			<path style="fill:#FFFFFF;" d="M2150.908,920.187c-7.158,23.907-23.402,32.626-100.996,52.632h-0.137
				c-0.734,0.23-1.469,0.413-2.248,0.597c-31.845,8.168-73.878,18.217-129.492,31.891c-4.772,1.193-9.636,2.386-14.592,3.625
				c-4.176,1.009-8.397,2.065-12.711,3.12c-3.671,0.917-7.342,1.836-11.104,2.8c-0.275,0.045-0.551,0.091-0.826,0.183
				c-3.488,0.872-7.021,1.744-10.6,2.661c-7.709,1.927-15.693,3.901-23.861,5.966c-115.221,29.001-231.589,86.909-325.611,142.57
				c-0.092,0.046-0.138,0.046-0.138,0.046c-58.918-64.15-90.534-123.665-103.841-177.581
				c-30.744-124.215,35.562-218.604,88.24-271.052c29.551-29.413,54.789-45.611,56.211-46.529c0.046-0.046,0.046-0.046,0.046-0.046
				c15.923-2.936,32.213-5.139,48.594-6.699c44.785-4.176,90.029-3.442,129.492,0.275c53.917,5.048,97.096,15.693,113.937,26.936
				c49.649,33.038,126.739,190.2,126.739,190.2c3.487,0.045,37.352,0.321,74.29,3.533c1.331,0.138,2.661,0.23,4.038,0.367
				c1.331,0.138,2.661,0.23,4.038,0.367C2107.775,890.637,2156.919,900.227,2150.908,920.187z"/>
		</g>
		<g style="opacity:0.2;">
			<path style="fill:#000072;" d="M2049.911,972.819c-0.78,0.184-1.56,0.413-2.386,0.597
				c-31.845,8.168-73.878,18.217-129.492,31.891c-4.772,1.193-9.636,2.386-14.592,3.625c-4.176,1.009-8.397,2.065-12.711,3.12
				c-3.625,0.917-7.342,1.836-11.104,2.8c-0.275,0.045-0.551,0.091-0.826,0.183c-3.488,0.872-7.021,1.744-10.6,2.661
				c-7.709,1.927-15.693,3.901-23.861,5.966c-115.221,29.001-231.589,86.909-325.611,142.57c-0.092,0.046-0.138,0.046-0.138,0.046
				c-58.918-64.15-90.534-123.665-103.841-177.581c1.744-1.927,3.487-3.946,5.277-6.011c0,0,82.183,114.716,299.731-43.592
				c0,0,133.255,64.516,330.016,33.726H2049.911z"/>
		</g>
		<g style="opacity:0.6;">
			<path style="fill:#FFFFFF;" d="M2150.633,920.187c-4.222,14.133-11.609,22.943-32.947,31.937
				c-19.318-28.358-171.386-29-171.386-29s-7.571-15.418-19.456-37.581c-26.109-48.64-73.189-129.951-107.283-152.665
				c-33.681-22.393-172.809-42.491-292.068-20.465c0,0,0,0-0.046,0.046c-8.26,1.514-16.427,3.258-24.458,5.185
				c29.551-29.413,54.789-45.611,56.211-46.529c0.046-0.046,0.046-0.046,0.046-0.046c15.923-2.936,32.213-5.139,48.594-6.699
				c44.785-4.176,90.029-3.442,129.492,0.275c53.779,5.093,96.866,15.739,113.661,26.936c49.649,33.038,126.739,190.2,126.739,190.2
				s0.092,0,0.275,0c3.487,0.045,37.352,0.321,74.29,3.533c1.331,0.138,2.661,0.23,4.038,0.367c1.331,0.138,2.661,0.23,4.038,0.367
				C2107.683,890.683,2156.598,900.273,2150.633,920.187z"/>
		</g>
		<g>
			<path style="fill:#000072;" d="M1518.599,1184.649c-5.139,0-10.044-2.153-13.518-5.94
				c-88.198-96.04-126.648-192.671-114.282-287.207c18.735-143.237,149.001-229.712,158.196-235.647
				c2.08-1.397,4.436-2.371,6.904-2.827c122.9-22.708,267.83-1.865,305.554,23.267c46.365,30.872,108.826,149.419,127.964,187.266
				c52.62,0.801,152.515,6.301,174.397,35.84c5.735,7.739,7.395,16.997,4.678,26.067l0,0c-12.134,40.503-39.763,47.253-193.1,84.712
				c-34.092,8.328-76.521,18.694-126.567,31.296c-96.201,24.214-204.114,71.509-320.74,140.569c-0.374,0.222-0.757,0.43-1.145,0.623
				C1524.39,1183.941,1521.448,1184.649,1518.599,1184.649z M1518.731,1166.25h0.049H1518.731z M1566.234,688.465
				c-19.084,12.913-123.438,88.55-139.036,207.8c-10.437,79.785,21.543,162.708,95.066,246.631
				c114.773-66.772,221.555-112.847,317.598-137.021c50.173-12.632,92.671-23.015,126.819-31.357
				c127.19-31.069,156.536-38.684,164.946-55.273c-16.978-10.1-85.295-18.782-153.699-19.087
				c-6.973-0.032-13.328-4.011-16.399-10.271c-20.847-42.49-83.125-158.203-120.427-183.037
				C1812.845,688.018,1681.277,668.123,1566.234,688.465z"/>
		</g>
		<g>
			<path style="fill:#6084D6;" d="M2150.908,920.187c-7.158,23.907-23.402,32.626-100.996,52.632h-0.137
				c-0.734,0.23-1.469,0.413-2.248,0.597c-31.845,8.168-73.878,18.217-129.492,31.891c-4.772,1.193-9.636,2.386-14.592,3.625
				c-4.176,1.009-8.397,2.065-12.711,3.12c-3.671,0.917-7.342,1.836-11.104,2.8c-0.275,0.045-0.551,0.091-0.826,0.183
				c-3.488,0.872-7.021,1.744-10.6,2.661c-7.709,1.927-15.693,3.901-23.861,5.966c-115.221,29.001-231.589,86.909-325.611,142.57
				c15.556-74.566,55.66-129.63,106.136-170.24c29.046-23.402,61.534-42.032,94.756-56.808c0.046-0.045,0.138-0.091,0.183-0.045
				c76.539-34.186,156.703-47.998,207.04-53.596c29.184-3.258,48.319-3.717,50.888-3.762c0,0,35.608,0.137,74.566,3.533
				c1.331,0.138,2.661,0.23,4.038,0.367c1.331,0.138,2.661,0.23,4.038,0.367C2107.775,890.637,2156.919,900.227,2150.908,920.187z"
				/>
		</g>
		<g style="opacity:0.2;">
			<path style="fill:#000072;" d="M2049.911,972.819c-0.78,0.184-1.56,0.413-2.386,0.597
				c-31.845,8.168-73.878,18.217-129.492,31.891c-4.772,1.193-9.636,2.386-14.592,3.625c-4.176,1.009-8.397,2.065-12.711,3.12
				c-3.625,0.917-7.342,1.836-11.104,2.8c-0.275,0.045-0.551,0.091-0.826,0.183c-3.488,0.872-7.021,1.744-10.6,2.661
				c-7.709,1.927-15.693,3.901-23.861,5.966c-115.221,29.001-231.589,86.909-325.611,142.57
				c15.556-74.566,55.66-129.63,106.136-170.24c28.22-12.94,59.745-31.34,94.756-56.808c0.046-0.045,0.092-0.045,0.138-0.091
				c0,0,0,0,0.046,0.046c3.304,1.559,135.687,64.103,329.971,33.68H2049.911z"/>
		</g>
		<g style="opacity:0.6;">
			<path style="fill:#FFFFFF;" d="M2155.633,915.187c-4.222,14.133-11.609,22.943-32.947,31.937
				c-14.002-20.554-97.743-26.547-142.773-28.29c-17.594-0.681-33.48-10.626-41.663-26.216c-1.957-3.729-4.101-7.775-6.407-12.075
				c29.184-3.258,48.319-3.717,50.888-3.762c0,0,35.608,0.137,74.566,3.533c1.331,0.138,2.661,0.23,4.038,0.367
				c1.331,0.138,2.661,0.23,4.038,0.367C2112.683,885.683,2161.598,895.273,2155.633,915.187z"/>
		</g>
		<g>
			<path style="fill:#000072;" d="M1518.734,1184.605c-3.755,0-7.498-1.15-10.679-3.425c-5.916-4.229-8.777-11.553-7.292-18.672
				c25.139-120.686,116.262-210.725,263.513-260.386c109.036-36.77,209.258-38.613,213.469-38.672
				c48.33,0.203,162.49,4.119,186.069,35.95c5.735,7.739,7.395,16.997,4.678,26.067l0,0c-12.134,40.503-39.763,47.253-193.1,84.712
				c-34.092,8.328-76.521,18.694-126.567,31.294c-96.201,24.216-204.114,71.511-320.74,140.571
				C1525.191,1183.755,1521.959,1184.605,1518.734,1184.605z M1977.928,900.157c-3.313,0.054-344.141,7.94-428.762,227.385
				c104.585-58.523,202.197-99.392,290.696-121.667c50.173-12.632,92.671-23.015,126.819-31.355
				c127.19-31.072,156.536-38.687,164.946-55.276C2114.649,909.143,2046.331,900.462,1977.928,900.157z"/>
		</g>
		<g>
			<g>
				<path style="fill:#000072;" d="M1820.952,1451.709c-5.178-23.346-6.714-41.557-6.714-41.557
					c48.008,12.858,79.384-2.282,98.122-19.089c0,0,10.093,14.042,20.318,33.922c19.791,38.354,40.241,98.385-10.181,120.415
					c-1.229,0.57-2.545,1.097-3.862,1.58c-53.054,19.747-79.823-31.201-92.856-76.444
					C1823.893,1464.04,1822.313,1457.721,1820.952,1451.709"/>
			</g>
			<g>
				<path style="fill:#FF6685;" d="M1912.666,1536.301c0,3.52-0.282,6.933-0.845,10.277c-0.986,0.458-2.041,0.88-3.097,1.267
					c-42.551,15.838-64.021-25.024-74.474-61.311c7.602-4.505,16.295-7.074,25.552-7.074
					C1889.015,1479.46,1912.666,1504.906,1912.666,1536.301z"/>
			</g>
			<g>
				<path style="fill:#000072;" d="M1912.369,1409.417c-5.034,0-10.046-2.058-13.669-6.099c-6.77-7.546-6.14-19.15,1.406-25.918
					c12.715-11.406,18.391-23.879,18.447-24.004c4.123-9.209,14.936-13.42,24.165-9.353c9.236,4.06,13.486,14.753,9.487,24.016
					c-0.859,1.992-8.935,19.937-27.588,36.665C1921.114,1407.869,1916.731,1409.417,1912.369,1409.417z"/>
			</g>
			<g>
				<path style="fill:#000072;" d="M1896.155,1569.746c-10.586,0-20.708-2.407-30.271-7.229
					c-25.393-12.803-44.822-42.041-57.742-86.902c-1.816-6.25-3.486-12.759-5.093-19.856c-0.005-0.024-0.01-0.051-0.017-0.076
					c-5.383-24.27-7.017-43.196-7.083-43.989c-0.503-5.957,1.926-11.787,6.511-15.623c4.59-3.833,10.759-5.193,16.526-3.65
					c32.893,8.801,60.183,3.752,81.118-15.022c3.877-3.484,9.045-5.159,14.238-4.585c5.183,0.564,9.88,3.303,12.922,7.534
					c0.444,0.62,11.011,15.391,21.736,36.243c22.315,43.242,28.74,78.96,19.089,106.135c-6.355,17.893-19.224,31.179-38.245,39.49
					c-1.306,0.613-3.105,1.34-4.91,2C1915.035,1567.903,1905.418,1569.746,1896.155,1569.746z M1838.863,1447.691
					c1.438,6.357,2.925,12.156,4.541,17.722c9.709,33.706,23.559,56.536,39.009,64.326c8.555,4.309,18.31,4.326,29.819,0.037
					c0.93-0.339,1.763-0.667,2.536-1.025c9.998-4.373,15.828-10.137,18.731-18.308c5.947-16.746-0.137-44.106-17.131-77.041
					c-3.064-5.959-6.128-11.375-8.87-15.977c-17.393,10.508-40.984,18.232-71.604,15.308
					C1836.702,1437.327,1837.684,1442.373,1838.863,1447.691z"/>
			</g>
			<g>
				<path style="fill:#FFFFFF;" d="M1932.678,1424.984c0,0-31.157,42.391-111.682,26.725h-0.044
					c-5.178-23.345-6.714-41.557-6.714-41.557c48.008,12.858,79.384-2.282,98.122-19.089
					C1912.36,1391.063,1922.454,1405.105,1932.678,1424.984z"/>
			</g>
			<g>
				<path style="fill:#000072;" d="M1855.264,1466.673c-10.923,0-22.991-1.094-36.284-3.669c-4.502-0.798-8.21-4.229-9.226-8.809
					c-5.286-23.823-6.88-42.305-6.946-43.079c-0.315-3.723,1.204-7.366,4.07-9.763c2.864-2.395,6.719-3.247,10.33-2.283
					c35.276,9.451,64.717,3.882,87.495-16.548c2.424-2.175,5.657-3.22,8.899-2.864c3.237,0.352,6.174,2.063,8.076,4.709
					c0.432,0.601,10.708,14.968,21.203,35.371c1.99,3.87,1.619,8.533-0.959,12.041
					C1940.696,1433.445,1915.457,1466.673,1855.264,1466.673z M1830.579,1441.741c50.962,7.888,77.917-9.57,88.096-18.65
					c-3.281-5.967-6.411-11.174-8.999-15.295c-18.245,12.7-45.098,22.82-82.058,16.938
					C1828.35,1429.615,1829.319,1435.401,1830.579,1441.741z"/>
			</g>
		</g>
	</g>
</g>
</svg>
